  0
SECTION
  2
HEADER
  9
$ACADVER
  1
AC1021
  9
$ACADMAINTVER
 70
    25
  9
$DWGCODEPAGE
  3
ANSI_1250
  9
$INSBASE
 10
0.0
 20
0.0
 30
0.0
  9
$EXTMIN
 10
21.17113
 20
62.82737
 30
0.0
  9
$EXTMAX
 10
27.68113
 20
64.21237
 30
0.0
  9
$LIMMIN
 10
0.0
 20
0.0
  9
$LIMMAX
 10
12.0
 20
9.0
  9
$ORTHOMODE
 70
     0
  9
$REGENMODE
 70
     1
  9
$FILLMODE
 70
     1
  9
$QTEXTMODE
 70
     0
  9
$MIRRTEXT
 70
     1
  9
$LTSCALE
 40
1.0
  9
$ATTMODE
 70
     1
  9
$TEXTSIZE
 40
0.2
  9
$TRACEWID
 40
0.05
  9
$TEXTSTYLE
  7
Standard
  9
$CLAYER
  8
0
  9
$CELTYPE
  6
ByLayer
  9
$CECOLOR
 62
   256
  9
$CELTSCALE
 40
1.0
  9
$DISPSILH
 70
     0
  9
$DIMSCALE
 40
1.0
  9
$DIMASZ
 40
0.18
  9
$DIMEXO
 40
0.0625
  9
$DIMDLI
 40
0.38
  9
$DIMRND
 40
0.0
  9
$DIMDLE
 40
0.0
  9
$DIMEXE
 40
0.18
  9
$DIMTP
 40
0.0
  9
$DIMTM
 40
0.0
  9
$DIMTXT
 40
0.18
  9
$DIMCEN
 40
0.09
  9
$DIMTSZ
 40
0.0
  9
$DIMTOL
 70
     0
  9
$DIMLIM
 70
     0
  9
$DIMTIH
 70
     1
  9
$DIMTOH
 70
     1
  9
$DIMSE1
 70
     0
  9
$DIMSE2
 70
     0
  9
$DIMTAD
 70
     0
  9
$DIMZIN
 70
     0
  9
$DIMBLK
  1

  9
$DIMASO
 70
     1
  9
$DIMSHO
 70
     1
  9
$DIMPOST
  1

  9
$DIMAPOST
  1

  9
$DIMALT
 70
     0
  9
$DIMALTD
 70
     2
  9
$DIMALTF
 40
25.4
  9
$DIMLFAC
 40
1.0
  9
$DIMTOFL
 70
     0
  9
$DIMTVP
 40
0.0
  9
$DIMTIX
 70
     0
  9
$DIMSOXD
 70
     0
  9
$DIMSAH
 70
     0
  9
$DIMBLK1
  1

  9
$DIMBLK2
  1

  9
$DIMSTYLE
  2
Standard
  9
$DIMCLRD
 70
     0
  9
$DIMCLRE
 70
     0
  9
$DIMCLRT
 70
     0
  9
$DIMTFAC
 40
1.0
  9
$DIMGAP
 40
0.09
  9
$DIMJUST
 70
     0
  9
$DIMSD1
 70
     0
  9
$DIMSD2
 70
     0
  9
$DIMTOLJ
 70
     1
  9
$DIMTZIN
 70
     0
  9
$DIMALTZ
 70
     0
  9
$DIMALTTZ
 70
     0
  9
$DIMUPT
 70
     0
  9
$DIMDEC
 70
     4
  9
$DIMTDEC
 70
     4
  9
$DIMALTU
 70
     2
  9
$DIMALTTD
 70
     2
  9
$DIMTXSTY
  7
Standard
  9
$DIMAUNIT
 70
     0
  9
$DIMADEC
 70
     0
  9
$DIMALTRND
 40
0.0
  9
$DIMAZIN
 70
     0
  9
$DIMDSEP
 70
    46
  9
$DIMATFIT
 70
     3
  9
$DIMFRAC
 70
     0
  9
$DIMLDRBLK
  1

  9
$DIMLUNIT
 70
     2
  9
$DIMLWD
 70
    -2
  9
$DIMLWE
 70
    -2
  9
$DIMTMOVE
 70
     0
  9
$DIMFXL
 40
1.0
  9
$DIMFXLON
 70
     0
  9
$DIMJOGANG
 40
0.7853981633974483
  9
$DIMTFILL
 70
     0
  9
$DIMTFILLCLR
 70
     0
  9
$DIMARCSYM
 70
     0
  9
$DIMLTYPE
  6

  9
$DIMLTEX1
  6

  9
$DIMLTEX2
  6

  9
$LUNITS
 70
     2
  9
$LUPREC
 70
     4
  9
$SKETCHINC
 40
0.1
  9
$FILLETRAD
 40
0.5
  9
$AUNITS
 70
     0
  9
$AUPREC
 70
     0
  9
$MENU
  1
.
  9
$ELEVATION
 40
0.0
  9
$PELEVATION
 40
0.0
  9
$THICKNESS
 40
0.0
  9
$LIMCHECK
 70
     0
  9
$CHAMFERA
 40
0.5
  9
$CHAMFERB
 40
0.5
  9
$CHAMFERC
 40
1.0
  9
$CHAMFERD
 40
0.0
  9
$SKPOLY
 70
     0
  9
$TDCREATE
 40
2458424.171417245
  9
$TDUCREATE
 40
2458424.129750579
  9
$TDUPDATE
 40
2458424.171417257
  9
$TDUUPDATE
 40
2458424.12975059
  9
$TDINDWG
 40
0.0000000116
  9
$TDUSRTIMER
 40
0.0000000116
  9
$USRTIMER
 70
     1
  9
$ANGBASE
 50
0.0
  9
$ANGDIR
 70
     0
  9
$PDMODE
 70
     0
  9
$PDSIZE
 40
0.0
  9
$PLINEWID
 40
0.0
  9
$SPLFRAME
 70
     0
  9
$SPLINETYPE
 70
     6
  9
$SPLINESEGS
 70
     8
  9
$HANDSEED
  5
76
  9
$SURFTAB1
 70
     6
  9
$SURFTAB2
 70
     6
  9
$SURFTYPE
 70
     6
  9
$SURFU
 70
     6
  9
$SURFV
 70
     6
  9
$UCSBASE
  2

  9
$UCSNAME
  2

  9
$UCSORG
 10
0.0
 20
0.0
 30
0.0
  9
$UCSXDIR
 10
1.0
 20
0.0
 30
0.0
  9
$UCSYDIR
 10
0.0
 20
1.0
 30
0.0
  9
$UCSORTHOREF
  2

  9
$UCSORTHOVIEW
 70
     0
  9
$UCSORGTOP
 10
0.0
 20
0.0
 30
0.0
  9
$UCSORGBOTTOM
 10
0.0
 20
0.0
 30
0.0
  9
$UCSORGLEFT
 10
0.0
 20
0.0
 30
0.0
  9
$UCSORGRIGHT
 10
0.0
 20
0.0
 30
0.0
  9
$UCSORGFRONT
 10
0.0
 20
0.0
 30
0.0
  9
$UCSORGBACK
 10
0.0
 20
0.0
 30
0.0
  9
$PUCSBASE
  2

  9
$PUCSNAME
  2

  9
$PUCSORG
 10
0.0
 20
0.0
 30
0.0
  9
$PUCSXDIR
 10
1.0
 20
0.0
 30
0.0
  9
$PUCSYDIR
 10
0.0
 20
1.0
 30
0.0
  9
$PUCSORTHOREF
  2

  9
$PUCSORTHOVIEW
 70
     0
  9
$PUCSORGTOP
 10
0.0
 20
0.0
 30
0.0
  9
$PUCSORGBOTTOM
 10
0.0
 20
0.0
 30
0.0
  9
$PUCSORGLEFT
 10
0.0
 20
0.0
 30
0.0
  9
$PUCSORGRIGHT
 10
0.0
 20
0.0
 30
0.0
  9
$PUCSORGFRONT
 10
0.0
 20
0.0
 30
0.0
  9
$PUCSORGBACK
 10
0.0
 20
0.0
 30
0.0
  9
$USERI1
 70
     0
  9
$USERI2
 70
     0
  9
$USERI3
 70
     0
  9
$USERI4
 70
     0
  9
$USERI5
 70
     0
  9
$USERR1
 40
0.0
  9
$USERR2
 40
0.0
  9
$USERR3
 40
0.0
  9
$USERR4
 40
0.0
  9
$USERR5
 40
0.0
  9
$WORLDVIEW
 70
     1
  9
$SHADEDGE
 70
     3
  9
$SHADEDIF
 70
    70
  9
$TILEMODE
 70
     1
  9
$MAXACTVP
 70
    64
  9
$PINSBASE
 10
0.0
 20
0.0
 30
0.0
  9
$PLIMCHECK
 70
     0
  9
$PEXTMIN
 10
1.000000000000000E+20
 20
1.000000000000000E+20
 30
1.000000000000000E+20
  9
$PEXTMAX
 10
-1.000000000000000E+20
 20
-1.000000000000000E+20
 30
-1.000000000000000E+20
  9
$PLIMMIN
 10
0.0
 20
0.0
  9
$PLIMMAX
 10
12.0
 20
9.0
  9
$UNITMODE
 70
     0
  9
$VISRETAIN
 70
     1
  9
$PLINEGEN
 70
     0
  9
$PSLTSCALE
 70
     1
  9
$TREEDEPTH
 70
  3020
  9
$CMLSTYLE
  2
Standard
  9
$CMLJUST
 70
     0
  9
$CMLSCALE
 40
1.0
  9
$PROXYGRAPHICS
 70
     1
  9
$MEASUREMENT
 70
     0
  9
$CELWEIGHT
370
    -1
  9
$ENDCAPS
280
     0
  9
$JOINSTYLE
280
     0
  9
$LWDISPLAY
290
     0
  9
$INSUNITS
 70
     5
  9
$HYPERLINKBASE
  1

  9
$STYLESHEET
  1

  9
$XEDIT
290
     1
  9
$CEPSNTYPE
380
     0
  9
$PSTYLEMODE
290
     1
  9
$FINGERPRINTGUID
  2
{F304E808-22BD-4000-A67F-6C912B1E5600}
  9
$VERSIONGUID
  2
{FAEB1C32-E019-11D5-929B-00C0DF256EC4}
  9
$EXTNAMES
290
     1
  9
$PSVPSCALE
 40
0.0
  9
$OLESTARTUP
290
     0
  9
$SORTENTS
280
   127
  9
$INDEXCTL
280
     0
  9
$HIDETEXT
280
     1
  9
$XCLIPFRAME
290
     0
  9
$HALOGAP
280
     0
  9
$OBSCOLOR
 70
   257
  9
$OBSLTYPE
280
     0
  9
$INTERSECTIONDISPLAY
280
     0
  9
$INTERSECTIONCOLOR
 70
   257
  9
$DIMASSOC
280
     2
  9
$PROJECTNAME
  1

  9
$CAMERADISPLAY
290
     0
  9
$LENSLENGTH
 40
50.0
  9
$CAMERAHEIGHT
 40
0.0
  9
$STEPSPERSEC
 40
2.0
  9
$STEPSIZE
 40
6.0
  9
$3DDWFPREC
 40
2.0
  9
$PSOLWIDTH
 40
0.25
  9
$PSOLHEIGHT
 40
4.0
  9
$LOFTANG1
 40
1.570796326794897
  9
$LOFTANG2
 40
1.570796326794897
  9
$LOFTMAG1
 40
0.0
  9
$LOFTMAG2
 40
0.0
  9
$LOFTPARAM
 70
     7
  9
$LOFTNORMALS
280
     1
  9
$LATITUDE
 40
37.795
  9
$LONGITUDE
 40
-122.394
  9
$NORTHDIRECTION
 40
0.0
  9
$TIMEZONE
 70
 -8000
  9
$LIGHTGLYPHDISPLAY
280
     1
  9
$TILEMODELIGHTSYNCH
280
     1
  9
$SOLIDHIST
280
     1
  9
$SHOWHIST
280
     1
  9
$DWFFRAME
280
     2
  9
$DGNFRAME
280
     2
  9
$REALWORLDSCALE
290
     1
  9
$INTERFERECOLOR
 62
   256
  9
$CSHADOW
280
     0
  9
$SHADOWPLANELOCATION
 40
0.0
  0
ENDSEC
  0
SECTION
  2
CLASSES
  0
CLASS
  1
ACDBDICTIONARYWDFLT
  2
AcDbDictionaryWithDefault
  3
ObjectDBX Classes
 90
        0
 91
        3
280
     0
281
     0
  0
CLASS
  1
VISUALSTYLE
  2
AcDbVisualStyle
  3
ObjectDBX Classes
 90
     4095
 91
        3
280
     0
281
     0
  0
CLASS
  1
SCALE
  2
AcDbScale
  3
ObjectDBX Classes
 90
     1153
 91
        3
280
     0
281
     0
  0
ENDSEC
  0
SECTION
  2
TABLES
  0
TABLE
  2
VPORT
  5
8
330
0
100
AcDbSymbolTable
 70
     1
  0
VPORT
  5
29
330
8
100
AcDbSymbolTableRecord
100
AcDbViewportTableRecord
  2
*Active
 70
     0
 10
0.0
 20
0.0
 11
1.0
 21
1.0
 12
10.42990654205607
 22
4.5
 13
0.0
 23
0.0
 14
0.5
 24
0.5
 15
0.5
 25
0.5
 16
0.0
 26
0.0
 36
1.0
 17
0.0
 27
0.0
 37
0.0
 40
9.0
 41
1.972972972850329
 42
50.0
 43
0.0
 44
0.0
 50
0.0
 51
0.0
 71
     0
 72
   100
 73
     1
 74
     3
 75
     0
 76
     0
 77
     0
 78
     0
281
     0
 65
     1
110
0.0
120
0.0
130
0.0
111
1.0
121
0.0
131
0.0
112
0.0
122
1.0
132
0.0
 79
     0
146
0.0
 60
     3
 61
     5
292
     1
282
     1
141
0.0
142
0.0
 63
   256
  0
ENDTAB
  0
TABLE
  2
LTYPE
  5
5
330
0
100
AcDbSymbolTable
 70
     1
  0
LTYPE
  5
14
330
5
100
AcDbSymbolTableRecord
100
AcDbLinetypeTableRecord
  2
ByBlock
 70
     0
  3

 72
    65
 73
     0
 40
0.0
  0
LTYPE
  5
15
330
5
100
AcDbSymbolTableRecord
100
AcDbLinetypeTableRecord
  2
ByLayer
 70
     0
  3

 72
    65
 73
     0
 40
0.0
  0
LTYPE
  5
16
330
5
100
AcDbSymbolTableRecord
100
AcDbLinetypeTableRecord
  2
Continuous
 70
     0
  3
Solid line
 72
    65
 73
     0
 40
0.0
  0
ENDTAB
  0
TABLE
  2
LAYER
  5
2
330
0
100
AcDbSymbolTable
 70
     2
  0
LAYER
  5
10
330
2
100
AcDbSymbolTableRecord
100
AcDbLayerTableRecord
  2
0
 70
     0
 62
     7
  6
Continuous
370
    -3
390
F
347
0
  0
LAYER
  5
5E
330
2
100
AcDbSymbolTableRecord
100
AcDbLayerTableRecord
  2
Layer 1
 70
     0
 62
     7
  6
Continuous
370
    -3
390
F
347
0
  0
ENDTAB
  0
TABLE
  2
STYLE
  5
3
330
0
100
AcDbSymbolTable
 70
     1
  0
STYLE
  5
11
330
3
100
AcDbSymbolTableRecord
100
AcDbTextStyleTableRecord
  2
Standard
 70
     0
 40
0.0
 41
1.0
 50
0.0
 71
     0
 42
0.2
  3
txt
  4

  0
ENDTAB
  0
TABLE
  2
VIEW
  5
6
330
0
100
AcDbSymbolTable
 70
     0
  0
ENDTAB
  0
TABLE
  2
UCS
  5
7
330
0
100
AcDbSymbolTable
 70
     0
  0
ENDTAB
  0
TABLE
  2
APPID
  5
9
330
0
100
AcDbSymbolTable
 70
     2
  0
APPID
  5
12
330
9
100
AcDbSymbolTableRecord
100
AcDbRegAppTableRecord
  2
ACAD
 70
     0
  0
APPID
  5
5D
330
9
100
AcDbSymbolTableRecord
100
AcDbRegAppTableRecord
  2
ODA
 70
     0
  0
ENDTAB
  0
TABLE
  2
DIMSTYLE
  5
A
330
0
100
AcDbSymbolTable
 70
     1
100
AcDbDimStyleTable
  0
DIMSTYLE
105
27
330
A
100
AcDbSymbolTableRecord
100
AcDbDimStyleTableRecord
  2
Standard
 70
     0
340
11
  0
ENDTAB
  0
TABLE
  2
BLOCK_RECORD
  5
1
330
0
100
AcDbSymbolTable
 70
     1
  0
BLOCK_RECORD
  5
1F
330
1
100
AcDbSymbolTableRecord
100
AcDbBlockTableRecord
  2
*Model_Space
340
22
 70
     0
280
     1
281
     0
  0
BLOCK_RECORD
  5
1B
330
1
100
AcDbSymbolTableRecord
100
AcDbBlockTableRecord
  2
*Paper_Space
340
1E
 70
     0
280
     1
281
     0
  0
BLOCK_RECORD
  5
23
330
1
100
AcDbSymbolTableRecord
100
AcDbBlockTableRecord
  2
*Paper_Space0
340
26
 70
     0
280
     1
281
     0
  0
ENDTAB
  0
ENDSEC
  0
SECTION
  2
BLOCKS
  0
BLOCK
  5
20
330
1F
100
AcDbEntity
  8
0
100
AcDbBlockBegin
  2
*Model_Space
 70
     0
 10
0.0
 20
0.0
 30
0.0
  3
*Model_Space
  1

  0
ENDBLK
  5
21
330
1F
100
AcDbEntity
  8
0
100
AcDbBlockEnd
  0
BLOCK
  5
1C
330
1B
100
AcDbEntity
 67
     1
  8
0
100
AcDbBlockBegin
  2
*Paper_Space
 70
     0
 10
0.0
 20
0.0
 30
0.0
  3
*Paper_Space
  1

  0
ENDBLK
  5
1D
330
1B
100
AcDbEntity
 67
     1
  8
0
100
AcDbBlockEnd
  0
BLOCK
  5
24
330
23
100
AcDbEntity
  8
0
100
AcDbBlockBegin
  2
*Paper_Space0
 70
     0
 10
0.0
 20
0.0
 30
0.0
  3
*Paper_Space0
  1

  0
ENDBLK
  5
25
330
23
100
AcDbEntity
  8
0
100
AcDbBlockEnd
  0
ENDSEC
  0
SECTION
  2
ENTITIES
  0
SPLINE
  5
5F
330
1F
100
AcDbEntity
  8
Layer 1
100
AcDbSpline
210
0.0
220
0.0
230
1.0
 70
    11
 71
     3
 72
    32
 73
    28
 74
     0
 42
0.0000000001
 43
0.0000000001
 40
0.0
 40
0.0
 40
0.0
 40
0.0
 40
0.1428571428571428
 40
0.1428571428571428
 40
0.1428571428571428
 40
0.1428571428571428
 40
0.2857142857142857
 40
0.2857142857142857
 40
0.2857142857142857
 40
0.2857142857142857
 40
0.4285714285714285
 40
0.4285714285714285
 40
0.4285714285714285
 40
0.4285714285714285
 40
0.5714285714285714
 40
0.5714285714285714
 40
0.5714285714285714
 40
0.5714285714285714
 40
0.7142857142857142
 40
0.7142857142857142
 40
0.7142857142857142
 40
0.7142857142857142
 40
0.857142857142857
 40
0.857142857142857
 40
0.857142857142857
 40
0.857142857142857
 40
1.0
 40
1.0
 40
1.0
 40
1.0
 10
21.80195
 20
63.83057
 30
0.0
 10
21.80195
 20
63.83057
 30
0.0
 10
21.68671
 20
63.83057
 30
0.0
 10
21.68671
 20
63.83057
 30
0.0
 10
21.68671
 20
63.83057
 30
0.0
 10
21.68671
 20
63.83057
 30
0.0
 10
21.68671
 20
63.60016
 30
0.0
 10
21.68671
 20
63.60016
 30
0.0
 10
21.68671
 20
63.60016
 30
0.0
 10
21.68671
 20
63.60016
 30
0.0
 10
21.80195
 20
63.59979
 30
0.0
 10
21.80195
 20
63.59979
 30
0.0
 10
21.80195
 20
63.59979
 30
0.0
 10
21.83362
 20
63.59979
 30
0.0
 10
21.86082
 20
63.61104
 30
0.0
 10
21.88345
 20
63.6336
 30
0.0
 10
21.88345
 20
63.6336
 30
0.0
 10
21.90602
 20
63.65609
 30
0.0
 10
21.91733
 20
63.68328
 30
0.0
 10
21.91733
 20
63.71518
 30
0.0
 10
21.91733
 20
63.71518
 30
0.0
 10
21.91733
 20
63.74693
 30
0.0
 10
21.90602
 20
63.77405
 30
0.0
 10
21.88345
 20
63.79669
 30
0.0
 10
21.88345
 20
63.79669
 30
0.0
 10
21.86082
 20
63.81925
 30
0.0
 10
21.83362
 20
63.83057
 30
0.0
 10
21.80195
 20
63.83057
 30
0.0
  0
SPLINE
  5
60
330
1F
100
AcDbEntity
  8
Layer 1
100
AcDbSpline
210
0.0
220
0.0
230
1.0
 70
    11
 71
     3
 72
    80
 73
    76
 74
     0
 42
0.0000000001
 43
0.0000000001
 40
0.0
 40
0.0
 40
0.0
 40
0.0
 40
0.0526315789473684
 40
0.0526315789473684
 40
0.0526315789473684
 40
0.0526315789473684
 40
0.1052631578947368
 40
0.1052631578947368
 40
0.1052631578947368
 40
0.1052631578947368
 40
0.1578947368421053
 40
0.1578947368421053
 40
0.1578947368421053
 40
0.1578947368421053
 40
0.2105263157894737
 40
0.2105263157894737
 40
0.2105263157894737
 40
0.2105263157894737
 40
0.2631578947368421
 40
0.2631578947368421
 40
0.2631578947368421
 40
0.2631578947368421
 40
0.3157894736842105
 40
0.3157894736842105
 40
0.3157894736842105
 40
0.3157894736842105
 40
0.3684210526315789
 40
0.3684210526315789
 40
0.3684210526315789
 40
0.3684210526315789
 40
0.4210526315789473
 40
0.4210526315789473
 40
0.4210526315789473
 40
0.4210526315789473
 40
0.4736842105263158
 40
0.4736842105263158
 40
0.4736842105263158
 40
0.4736842105263158
 40
0.5263157894736842
 40
0.5263157894736842
 40
0.5263157894736842
 40
0.5263157894736842
 40
0.5789473684210527
 40
0.5789473684210527
 40
0.5789473684210527
 40
0.5789473684210527
 40
0.631578947368421
 40
0.631578947368421
 40
0.631578947368421
 40
0.631578947368421
 40
0.6842105263157894
 40
0.6842105263157894
 40
0.6842105263157894
 40
0.6842105263157894
 40
0.7368421052631577
 40
0.7368421052631577
 40
0.7368421052631577
 40
0.7368421052631577
 40
0.7894736842105261
 40
0.7894736842105261
 40
0.7894736842105261
 40
0.7894736842105261
 40
0.8421052631578945
 40
0.8421052631578945
 40
0.8421052631578945
 40
0.8421052631578945
 40
0.8947368421052628
 40
0.8947368421052628
 40
0.8947368421052628
 40
0.8947368421052628
 40
0.9473684210526312
 40
0.9473684210526312
 40
0.9473684210526312
 40
0.9473684210526312
 40
1.0
 40
1.0
 40
1.0
 40
1.0
 10
21.80173
 20
63.96433
 30
0.0
 10
21.8359
 20
63.96433
 30
0.0
 10
21.86809
 20
63.95771
 30
0.0
 10
21.8983
 20
63.94463
 30
0.0
 10
21.8983
 20
63.94463
 30
0.0
 10
21.92851
 20
63.93148
 30
0.0
 10
21.95489
 20
63.91362
 30
0.0
 10
21.97738
 20
63.89105
 30
0.0
 10
21.97738
 20
63.89105
 30
0.0
 10
21.99994
 20
63.86856
 30
0.0
 10
22.0178
 20
63.84211
 30
0.0
 10
22.03096
 20
63.81183
 30
0.0
 10
22.03096
 20
63.81183
 30
0.0
 10
22.04404
 20
63.78155
 30
0.0
 10
22.05065
 20
63.74936
 30
0.0
 10
22.05065
 20
63.71518
 30
0.0
 10
22.05065
 20
63.71518
 30
0.0
 10
22.05065
 20
63.67917
 30
0.0
 10
22.04345
 20
63.64543
 30
0.0
 10
22.02912
 20
63.61398
 30
0.0
 10
22.02912
 20
63.61398
 30
0.0
 10
22.01472
 20
63.58252
 30
0.0
 10
21.99531
 20
63.55548
 30
0.0
 10
21.97077
 20
63.53276
 30
0.0
 10
21.97077
 20
63.53276
 30
0.0
 10
21.99531
 20
63.50998
 30
0.0
 10
22.01472
 20
63.48279
 30
0.0
 10
22.02912
 20
63.45133
 30
0.0
 10
22.02912
 20
63.45133
 30
0.0
 10
22.04345
 20
63.4198
 30
0.0
 10
22.0508
 20
63.38607
 30
0.0
 10
22.05102
 20
63.3502
 30
0.0
 10
22.05102
 20
63.3502
 30
0.0
 10
22.05102
 20
63.3502
 30
0.0
 10
22.05102
 20
63.3502
 30
0.0
 10
22.05102
 20
63.3502
 30
0.0
 10
22.05102
 20
63.3502
 30
0.0
 10
22.05102
 20
63.3502
 30
0.0
 10
22.05102
 20
63.34954
 30
0.0
 10
22.05102
 20
63.34954
 30
0.0
 10
22.05102
 20
63.34954
 30
0.0
 10
22.05102
 20
63.34954
 30
0.0
 10
22.05102
 20
63.34418
 30
0.0
 10
22.05102
 20
63.34418
 30
0.0
 10
22.05102
 20
63.34418
 30
0.0
 10
22.05102
 20
63.34418
 30
0.0
 10
22.05102
 20
63.34351
 30
0.0
 10
22.05102
 20
63.34351
 30
0.0
 10
22.05102
 20
63.34351
 30
0.0
 10
22.05102
 20
63.30919
 30
0.0
 10
22.04448
 20
63.27708
 30
0.0
 10
22.03133
 20
63.24694
 30
0.0
 10
22.03133
 20
63.24694
 30
0.0
 10
22.01824
 20
63.21688
 30
0.0
 10
22.00039
 20
63.19064
 30
0.0
 10
21.97775
 20
63.1683
 30
0.0
 10
21.97775
 20
63.1683
 30
0.0
 10
21.95511
 20
63.14588
 30
0.0
 10
21.92865
 20
63.12817
 30
0.0
 10
21.89837
 20
63.11516
 30
0.0
 10
21.89837
 20
63.11516
 30
0.0
 10
21.86809
 20
63.10223
 30
0.0
 10
21.8359
 20
63.09569
 30
0.0
 10
21.80173
 20
63.09569
 30
0.0
 10
21.80173
 20
63.09569
 30
0.0
 10
21.80173
 20
63.09569
 30
0.0
 10
21.55258
 20
63.09569
 30
0.0
 10
21.55258
 20
63.09569
 30
0.0
 10
21.55258
 20
63.09569
 30
0.0
 10
21.55258
 20
63.09569
 30
0.0
 10
21.55258
 20
63.96433
 30
0.0
 10
21.55258
 20
63.96433
 30
0.0
 10
21.55258
 20
63.96433
 30
0.0
 10
21.55258
 20
63.96433
 30
0.0
 10
21.80173
 20
63.96433
 30
0.0
 10
21.80173
 20
63.96433
 30
0.0
  0
SPLINE
  5
61
330
1F
100
AcDbEntity
  8
Layer 1
100
AcDbSpline
210
0.0
220
0.0
230
1.0
 70
    11
 71
     3
 72
    40
 73
    36
 74
     0
 42
0.0000000001
 43
0.0000000001
 40
0.0
 40
0.0
 40
0.0
 40
0.0
 40
0.1111111111111111
 40
0.1111111111111111
 40
0.1111111111111111
 40
0.1111111111111111
 40
0.2222222222222222
 40
0.2222222222222222
 40
0.2222222222222222
 40
0.2222222222222222
 40
0.3333333333333333
 40
0.3333333333333333
 40
0.3333333333333333
 40
0.3333333333333333
 40
0.4444444444444444
 40
0.4444444444444444
 40
0.4444444444444444
 40
0.4444444444444444
 40
0.5555555555555556
 40
0.5555555555555556
 40
0.5555555555555556
 40
0.5555555555555556
 40
0.6666666666666667
 40
0.6666666666666667
 40
0.6666666666666667
 40
0.6666666666666667
 40
0.7777777777777779
 40
0.7777777777777779
 40
0.7777777777777779
 40
0.7777777777777779
 40
0.8888888888888891
 40
0.8888888888888891
 40
0.8888888888888891
 40
0.8888888888888891
 40
1.0
 40
1.0
 40
1.0
 40
1.0
 10
21.68671
 20
63.46625
 30
0.0
 10
21.68671
 20
63.46625
 30
0.0
 10
21.68671
 20
63.22982
 30
0.0
 10
21.68671
 20
63.22982
 30
0.0
 10
21.68671
 20
63.22982
 30
0.0
 10
21.68671
 20
63.22982
 30
0.0
 10
21.80195
 20
63.22945
 30
0.0
 10
21.80195
 20
63.22945
 30
0.0
 10
21.80195
 20
63.22945
 30
0.0
 10
21.83362
 20
63.22945
 30
0.0
 10
21.86082
 20
63.2407
 30
0.0
 10
21.88331
 20
63.26326
 30
0.0
 10
21.88331
 20
63.26326
 30
0.0
 10
21.90587
 20
63.28575
 30
0.0
 10
21.91697
 20
63.31279
 30
0.0
 10
21.91667
 20
63.3444
 30
0.0
 10
21.91667
 20
63.3444
 30
0.0
 10
21.91667
 20
63.3444
 30
0.0
 10
21.91733
 20
63.3444
 30
0.0
 10
21.91733
 20
63.3444
 30
0.0
 10
21.91733
 20
63.3444
 30
0.0
 10
21.91733
 20
63.3444
 30
0.0
 10
21.91733
 20
63.34954
 30
0.0
 10
21.91733
 20
63.34954
 30
0.0
 10
21.91733
 20
63.34954
 30
0.0
 10
21.91733
 20
63.38129
 30
0.0
 10
21.90602
 20
63.40863
 30
0.0
 10
21.88345
 20
63.43149
 30
0.0
 10
21.88345
 20
63.43149
 30
0.0
 10
21.86082
 20
63.45442
 30
0.0
 10
21.83362
 20
63.46581
 30
0.0
 10
21.80195
 20
63.46581
 30
0.0
 10
21.80195
 20
63.46581
 30
0.0
 10
21.80195
 20
63.46581
 30
0.0
 10
21.68671
 20
63.46625
 30
0.0
 10
21.68671
 20
63.46625
 30
0.0
  0
SPLINE
  5
62
330
1F
100
AcDbEntity
  8
Layer 1
100
AcDbSpline
210
0.0
220
0.0
230
1.0
 70
    11
 71
     3
 72
    44
 73
    40
 74
     0
 42
0.0000000001
 43
0.0000000001
 40
0.0
 40
0.0
 40
0.0
 40
0.0
 40
0.1
 40
0.1
 40
0.1
 40
0.1
 40
0.2
 40
0.2
 40
0.2
 40
0.2
 40
0.3
 40
0.3
 40
0.3
 40
0.3
 40
0.4
 40
0.4
 40
0.4
 40
0.4
 40
0.5
 40
0.5
 40
0.5
 40
0.5
 40
0.6
 40
0.6
 40
0.6
 40
0.6
 40
0.7
 40
0.7
 40
0.7
 40
0.7
 40
0.7999999999999999
 40
0.7999999999999999
 40
0.7999999999999999
 40
0.7999999999999999
 40
0.8999999999999999
 40
0.8999999999999999
 40
0.8999999999999999
 40
0.8999999999999999
 40
1.0
 40
1.0
 40
1.0
 40
1.0
 10
22.20691
 20
63.96433
 30
0.0
 10
22.20691
 20
63.96433
 30
0.0
 10
22.70535
 20
63.96433
 30
0.0
 10
22.70535
 20
63.96433
 30
0.0
 10
22.70535
 20
63.96433
 30
0.0
 10
22.70535
 20
63.96433
 30
0.0
 10
22.70535
 20
63.83057
 30
0.0
 10
22.70535
 20
63.83057
 30
0.0
 10
22.70535
 20
63.83057
 30
0.0
 10
22.70535
 20
63.83057
 30
0.0
 10
22.35162
 20
63.22982
 30
0.0
 10
22.35162
 20
63.22982
 30
0.0
 10
22.35162
 20
63.22982
 30
0.0
 10
22.35162
 20
63.22982
 30
0.0
 10
22.70535
 20
63.22982
 30
0.0
 10
22.70535
 20
63.22982
 30
0.0
 10
22.70535
 20
63.22982
 30
0.0
 10
22.70535
 20
63.22982
 30
0.0
 10
22.70535
 20
63.09569
 30
0.0
 10
22.70535
 20
63.09569
 30
0.0
 10
22.70535
 20
63.09569
 30
0.0
 10
22.70535
 20
63.09569
 30
0.0
 10
22.20691
 20
63.09569
 30
0.0
 10
22.20691
 20
63.09569
 30
0.0
 10
22.20691
 20
63.09569
 30
0.0
 10
22.20691
 20
63.09569
 30
0.0
 10
22.20691
 20
63.22982
 30
0.0
 10
22.20691
 20
63.22982
 30
0.0
 10
22.20691
 20
63.22982
 30
0.0
 10
22.20691
 20
63.22982
 30
0.0
 10
22.56027
 20
63.83057
 30
0.0
 10
22.56027
 20
63.83057
 30
0.0
 10
22.56027
 20
63.83057
 30
0.0
 10
22.56027
 20
63.83057
 30
0.0
 10
22.20691
 20
63.83057
 30
0.0
 10
22.20691
 20
63.83057
 30
0.0
 10
22.20691
 20
63.83057
 30
0.0
 10
22.20691
 20
63.83057
 30
0.0
 10
22.20691
 20
63.96433
 30
0.0
 10
22.20691
 20
63.96433
 30
0.0
  0
SPLINE
  5
63
330
1F
100
AcDbEntity
  8
Layer 1
100
AcDbSpline
210
0.0
220
0.0
230
1.0
 70
    11
 71
     3
 72
    68
 73
    64
 74
     0
 42
0.0000000001
 43
0.0000000001
 40
0.0
 40
0.0
 40
0.0
 40
0.0
 40
0.0625
 40
0.0625
 40
0.0625
 40
0.0625
 40
0.125
 40
0.125
 40
0.125
 40
0.125
 40
0.1875
 40
0.1875
 40
0.1875
 40
0.1875
 40
0.25
 40
0.25
 40
0.25
 40
0.25
 40
0.3125
 40
0.3125
 40
0.3125
 40
0.3125
 40
0.375
 40
0.375
 40
0.375
 40
0.375
 40
0.4375
 40
0.4375
 40
0.4375
 40
0.4375
 40
0.5
 40
0.5
 40
0.5
 40
0.5
 40
0.5625
 40
0.5625
 40
0.5625
 40
0.5625
 40
0.625
 40
0.625
 40
0.625
 40
0.625
 40
0.6875
 40
0.6875
 40
0.6875
 40
0.6875
 40
0.75
 40
0.75
 40
0.75
 40
0.75
 40
0.8125
 40
0.8125
 40
0.8125
 40
0.8125
 40
0.875
 40
0.875
 40
0.875
 40
0.875
 40
0.9375
 40
0.9375
 40
0.9375
 40
0.9375
 40
1.0
 40
1.0
 40
1.0
 40
1.0
 10
23.35968
 20
63.22982
 30
0.0
 10
23.35968
 20
63.22982
 30
0.0
 10
23.35968
 20
63.09569
 30
0.0
 10
23.35968
 20
63.09569
 30
0.0
 10
23.35968
 20
63.09569
 30
0.0
 10
23.35968
 20
63.09569
 30
0.0
 10
22.99536
 20
63.09569
 30
0.0
 10
22.99536
 20
63.09569
 30
0.0
 10
22.99536
 20
63.09569
 30
0.0
 10
22.99536
 20
63.09569
 30
0.0
 10
22.90364
 20
63.09569
 30
0.0
 10
22.90364
 20
63.09569
 30
0.0
 10
22.90364
 20
63.09569
 30
0.0
 10
22.90364
 20
63.09569
 30
0.0
 10
22.86123
 20
63.09569
 30
0.0
 10
22.86123
 20
63.09569
 30
0.0
 10
22.86123
 20
63.09569
 30
0.0
 10
22.86123
 20
63.09569
 30
0.0
 10
22.86123
 20
63.96433
 30
0.0
 10
22.86123
 20
63.96433
 30
0.0
 10
22.86123
 20
63.96433
 30
0.0
 10
22.86123
 20
63.96433
 30
0.0
 10
22.90364
 20
63.96433
 30
0.0
 10
22.90364
 20
63.96433
 30
0.0
 10
22.90364
 20
63.96433
 30
0.0
 10
22.90364
 20
63.96433
 30
0.0
 10
22.99536
 20
63.96433
 30
0.0
 10
22.99536
 20
63.96433
 30
0.0
 10
22.99536
 20
63.96433
 30
0.0
 10
22.99536
 20
63.96433
 30
0.0
 10
23.35968
 20
63.96433
 30
0.0
 10
23.35968
 20
63.96433
 30
0.0
 10
23.35968
 20
63.96433
 30
0.0
 10
23.35968
 20
63.96433
 30
0.0
 10
23.35968
 20
63.83013
 30
0.0
 10
23.35968
 20
63.83013
 30
0.0
 10
23.35968
 20
63.83013
 30
0.0
 10
23.35968
 20
63.83013
 30
0.0
 10
22.99536
 20
63.83013
 30
0.0
 10
22.99536
 20
63.83013
 30
0.0
 10
22.99536
 20
63.83013
 30
0.0
 10
22.99536
 20
63.83013
 30
0.0
 10
22.99536
 20
63.61184
 30
0.0
 10
22.99536
 20
63.61184
 30
0.0
 10
22.99536
 20
63.61184
 30
0.0
 10
22.99536
 20
63.61184
 30
0.0
 10
23.27487
 20
63.61184
 30
0.0
 10
23.27487
 20
63.61184
 30
0.0
 10
23.27487
 20
63.61184
 30
0.0
 10
23.27487
 20
63.61184
 30
0.0
 10
23.27487
 20
63.47786
 30
0.0
 10
23.27487
 20
63.47786
 30
0.0
 10
23.27487
 20
63.47786
 30
0.0
 10
23.27487
 20
63.47786
 30
0.0
 10
22.99536
 20
63.47786
 30
0.0
 10
22.99536
 20
63.47786
 30
0.0
 10
22.99536
 20
63.47786
 30
0.0
 10
22.99536
 20
63.47786
 30
0.0
 10
22.99536
 20
63.22982
 30
0.0
 10
22.99536
 20
63.22982
 30
0.0
 10
22.99536
 20
63.22982
 30
0.0
 10
22.99536
 20
63.22982
 30
0.0
 10
23.35968
 20
63.22982
 30
0.0
 10
23.35968
 20
63.22982
 30
0.0
  0
SPLINE
  5
64
330
1F
100
AcDbEntity
  8
Layer 1
100
AcDbSpline
210
0.0
220
0.0
230
1.0
 70
    11
 71
     3
 72
    92
 73
    88
 74
     0
 42
0.0000000001
 43
0.0000000001
 40
0.0
 40
0.0
 40
0.0
 40
0.0
 40
0.0454545454545455
 40
0.0454545454545455
 40
0.0454545454545455
 40
0.0454545454545455
 40
0.0909090909090909
 40
0.0909090909090909
 40
0.0909090909090909
 40
0.0909090909090909
 40
0.1363636363636364
 40
0.1363636363636364
 40
0.1363636363636364
 40
0.1363636363636364
 40
0.1818181818181818
 40
0.1818181818181818
 40
0.1818181818181818
 40
0.1818181818181818
 40
0.2272727272727273
 40
0.2272727272727273
 40
0.2272727272727273
 40
0.2272727272727273
 40
0.2727272727272728
 40
0.2727272727272728
 40
0.2727272727272728
 40
0.2727272727272728
 40
0.3181818181818182
 40
0.3181818181818182
 40
0.3181818181818182
 40
0.3181818181818182
 40
0.3636363636363637
 40
0.3636363636363637
 40
0.3636363636363637
 40
0.3636363636363637
 40
0.4090909090909092
 40
0.4090909090909092
 40
0.4090909090909092
 40
0.4090909090909092
 40
0.4545454545454546
 40
0.4545454545454546
 40
0.4545454545454546
 40
0.4545454545454546
 40
0.5000000000000001
 40
0.5000000000000001
 40
0.5000000000000001
 40
0.5000000000000001
 40
0.5454545454545455
 40
0.5454545454545455
 40
0.5454545454545455
 40
0.5454545454545455
 40
0.5909090909090909
 40
0.5909090909090909
 40
0.5909090909090909
 40
0.5909090909090909
 40
0.6363636363636364
 40
0.6363636363636364
 40
0.6363636363636364
 40
0.6363636363636364
 40
0.6818181818181818
 40
0.6818181818181818
 40
0.6818181818181818
 40
0.6818181818181818
 40
0.7272727272727272
 40
0.7272727272727272
 40
0.7272727272727272
 40
0.7272727272727272
 40
0.7727272727272726
 40
0.7727272727272726
 40
0.7727272727272726
 40
0.7727272727272726
 40
0.818181818181818
 40
0.818181818181818
 40
0.818181818181818
 40
0.818181818181818
 40
0.8636363636363634
 40
0.8636363636363634
 40
0.8636363636363634
 40
0.8636363636363634
 40
0.9090909090909088
 40
0.9090909090909088
 40
0.9090909090909088
 40
0.9090909090909088
 40
0.9545454545454543
 40
0.9545454545454543
 40
0.9545454545454543
 40
0.9545454545454543
 40
1.0
 40
1.0
 40
1.0
 40
1.0
 10
24.84649
 20
63.56745
 30
0.0
 10
24.84649
 20
63.56745
 30
0.0
 10
24.57882
 20
63.22982
 30
0.0
 10
24.57882
 20
63.22982
 30
0.0
 10
24.57882
 20
63.22982
 30
0.0
 10
24.57882
 20
63.22982
 30
0.0
 10
24.89595
 20
63.22982
 30
0.0
 10
24.89595
 20
63.22982
 30
0.0
 10
24.89595
 20
63.22982
 30
0.0
 10
24.89595
 20
63.22982
 30
0.0
 10
24.89595
 20
63.09569
 30
0.0
 10
24.89595
 20
63.09569
 30
0.0
 10
24.89595
 20
63.09569
 30
0.0
 10
24.89595
 20
63.09569
 30
0.0
 10
24.3975
 20
63.09569
 30
0.0
 10
24.3975
 20
63.09569
 30
0.0
 10
24.3975
 20
63.09569
 30
0.0
 10
24.3975
 20
63.09569
 30
0.0
 10
24.3975
 20
63.22982
 30
0.0
 10
24.3975
 20
63.22982
 30
0.0
 10
24.3975
 20
63.22982
 30
0.0
 10
24.3975
 20
63.22982
 30
0.0
 10
24.73727
 20
63.64345
 30
0.0
 10
24.73727
 20
63.64345
 30
0.0
 10
24.73727
 20
63.64345
 30
0.0
 10
24.75395
 20
63.66484
 30
0.0
 10
24.76226
 20
63.6888
 30
0.0
 10
24.76226
 20
63.71518
 30
0.0
 10
24.76226
 20
63.71518
 30
0.0
 10
24.76226
 20
63.74693
 30
0.0
 10
24.75094
 20
63.77405
 30
0.0
 10
24.72838
 20
63.79669
 30
0.0
 10
24.72838
 20
63.79669
 30
0.0
 10
24.70574
 20
63.81925
 30
0.0
 10
24.67855
 20
63.83057
 30
0.0
 10
24.64687
 20
63.83057
 30
0.0
 10
24.64687
 20
63.83057
 30
0.0
 10
24.61498
 20
63.83057
 30
0.0
 10
24.58786
 20
63.81918
 30
0.0
 10
24.56537
 20
63.79632
 30
0.0
 10
24.56537
 20
63.79632
 30
0.0
 10
24.54288
 20
63.77354
 30
0.0
 10
24.53163
 20
63.7462
 30
0.0
 10
24.53163
 20
63.7143
 30
0.0
 10
24.53163
 20
63.7143
 30
0.0
 10
24.53163
 20
63.7143
 30
0.0
 10
24.3975
 20
63.7143
 30
0.0
 10
24.3975
 20
63.7143
 30
0.0
 10
24.3975
 20
63.7143
 30
0.0
 10
24.3975
 20
63.74862
 30
0.0
 10
24.40405
 20
63.78096
 30
0.0
 10
24.41713
 20
63.81131
 30
0.0
 10
24.41713
 20
63.81131
 30
0.0
 10
24.43021
 20
63.84166
 30
0.0
 10
24.44799
 20
63.86812
 30
0.0
 10
24.47048
 20
63.89076
 30
0.0
 10
24.47048
 20
63.89076
 30
0.0
 10
24.49305
 20
63.9134
 30
0.0
 10
24.51943
 20
63.93126
 30
0.0
 10
24.54979
 20
63.94448
 30
0.0
 10
24.54979
 20
63.94448
 30
0.0
 10
24.58007
 20
63.95771
 30
0.0
 10
24.61233
 20
63.96433
 30
0.0
 10
24.64665
 20
63.96433
 30
0.0
 10
24.64665
 20
63.96433
 30
0.0
 10
24.68083
 20
63.96433
 30
0.0
 10
24.71302
 20
63.95771
 30
0.0
 10
24.74323
 20
63.94463
 30
0.0
 10
24.74323
 20
63.94463
 30
0.0
 10
24.77343
 20
63.93148
 30
0.0
 10
24.79982
 20
63.91362
 30
0.0
 10
24.82231
 20
63.89105
 30
0.0
 10
24.82231
 20
63.89105
 30
0.0
 10
24.84487
 20
63.86856
 30
0.0
 10
24.86273
 20
63.84211
 30
0.0
 10
24.87588
 20
63.81183
 30
0.0
 10
24.87588
 20
63.81183
 30
0.0
 10
24.88897
 20
63.78155
 30
0.0
 10
24.89558
 20
63.74936
 30
0.0
 10
24.89558
 20
63.71518
 30
0.0
 10
24.89558
 20
63.71518
 30
0.0
 10
24.89558
 20
63.68718
 30
0.0
 10
24.89117
 20
63.66065
 30
0.0
 10
24.88243
 20
63.63551
 30
0.0
 10
24.88243
 20
63.63551
 30
0.0
 10
24.87368
 20
63.61038
 30
0.0
 10
24.8617
 20
63.58774
 30
0.0
 10
24.84649
 20
63.56745
 30
0.0
  0
SPLINE
  5
65
330
1F
100
AcDbEntity
  8
Layer 1
100
AcDbSpline
210
0.0
220
0.0
230
1.0
 70
    11
 71
     3
 72
   160
 73
   156
 74
     0
 42
0.0000000001
 43
0.0000000001
 40
0.0
 40
0.0
 40
0.0
 40
0.0
 40
0.0256410256410256
 40
0.0256410256410256
 40
0.0256410256410256
 40
0.0256410256410256
 40
0.0512820512820513
 40
0.0512820512820513
 40
0.0512820512820513
 40
0.0512820512820513
 40
0.0769230769230769
 40
0.0769230769230769
 40
0.0769230769230769
 40
0.0769230769230769
 40
0.1025641025641026
 40
0.1025641025641026
 40
0.1025641025641026
 40
0.1025641025641026
 40
0.1282051282051282
 40
0.1282051282051282
 40
0.1282051282051282
 40
0.1282051282051282
 40
0.1538461538461538
 40
0.1538461538461538
 40
0.1538461538461538
 40
0.1538461538461538
 40
0.1794871794871795
 40
0.1794871794871795
 40
0.1794871794871795
 40
0.1794871794871795
 40
0.2051282051282051
 40
0.2051282051282051
 40
0.2051282051282051
 40
0.2051282051282051
 40
0.2307692307692307
 40
0.2307692307692307
 40
0.2307692307692307
 40
0.2307692307692307
 40
0.2564102564102564
 40
0.2564102564102564
 40
0.2564102564102564
 40
0.2564102564102564
 40
0.282051282051282
 40
0.282051282051282
 40
0.282051282051282
 40
0.282051282051282
 40
0.3076923076923077
 40
0.3076923076923077
 40
0.3076923076923077
 40
0.3076923076923077
 40
0.3333333333333334
 40
0.3333333333333334
 40
0.3333333333333334
 40
0.3333333333333334
 40
0.358974358974359
 40
0.358974358974359
 40
0.358974358974359
 40
0.358974358974359
 40
0.3846153846153847
 40
0.3846153846153847
 40
0.3846153846153847
 40
0.3846153846153847
 40
0.4102564102564104
 40
0.4102564102564104
 40
0.4102564102564104
 40
0.4102564102564104
 40
0.435897435897436
 40
0.435897435897436
 40
0.435897435897436
 40
0.435897435897436
 40
0.4615384615384617
 40
0.4615384615384617
 40
0.4615384615384617
 40
0.4615384615384617
 40
0.4871794871794873
 40
0.4871794871794873
 40
0.4871794871794873
 40
0.4871794871794873
 40
0.512820512820513
 40
0.512820512820513
 40
0.512820512820513
 40
0.512820512820513
 40
0.5384615384615387
 40
0.5384615384615387
 40
0.5384615384615387
 40
0.5384615384615387
 40
0.5641025641025643
 40
0.5641025641025643
 40
0.5641025641025643
 40
0.5641025641025643
 40
0.58974358974359
 40
0.58974358974359
 40
0.58974358974359
 40
0.58974358974359
 40
0.6153846153846156
 40
0.6153846153846156
 40
0.6153846153846156
 40
0.6153846153846156
 40
0.6410256410256413
 40
0.6410256410256413
 40
0.6410256410256413
 40
0.6410256410256413
 40
0.666666666666667
 40
0.666666666666667
 40
0.666666666666667
 40
0.666666666666667
 40
0.6923076923076926
 40
0.6923076923076926
 40
0.6923076923076926
 40
0.6923076923076926
 40
0.7179487179487183
 40
0.7179487179487183
 40
0.7179487179487183
 40
0.7179487179487183
 40
0.743589743589744
 40
0.743589743589744
 40
0.743589743589744
 40
0.743589743589744
 40
0.7692307692307696
 40
0.7692307692307696
 40
0.7692307692307696
 40
0.7692307692307696
 40
0.7948717948717953
 40
0.7948717948717953
 40
0.7948717948717953
 40
0.7948717948717953
 40
0.8205128205128209
 40
0.8205128205128209
 40
0.8205128205128209
 40
0.8205128205128209
 40
0.8461538461538466
 40
0.8461538461538466
 40
0.8461538461538466
 40
0.8461538461538466
 40
0.8717948717948723
 40
0.8717948717948723
 40
0.8717948717948723
 40
0.8717948717948723
 40
0.8974358974358979
 40
0.8974358974358979
 40
0.8974358974358979
 40
0.8974358974358979
 40
0.9230769230769236
 40
0.9230769230769236
 40
0.9230769230769236
 40
0.9230769230769236
 40
0.9487179487179492
 40
0.9487179487179492
 40
0.9487179487179492
 40
0.9487179487179492
 40
0.9743589743589749
 40
0.9743589743589749
 40
0.9743589743589749
 40
0.9743589743589749
 40
1.0
 40
1.0
 40
1.0
 40
1.0
 10
25.18596
 20
63.71408
 30
0.0
 10
25.18596
 20
63.71408
 30
0.0
 10
25.05183
 20
63.71408
 30
0.0
 10
25.05183
 20
63.71408
 30
0.0
 10
25.05183
 20
63.71408
 30
0.0
 10
25.05183
 20
63.7484
 30
0.0
 10
25.05837
 20
63.78074
 30
0.0
 10
25.07145
 20
63.81109
 30
0.0
 10
25.07145
 20
63.81109
 30
0.0
 10
25.08454
 20
63.84144
 30
0.0
 10
25.10232
 20
63.86798
 30
0.0
 10
25.12481
 20
63.89069
 30
0.0
 10
25.12481
 20
63.89069
 30
0.0
 10
25.14737
 20
63.91332
 30
0.0
 10
25.17376
 20
63.93126
 30
0.0
 10
25.20411
 20
63.94448
 30
0.0
 10
25.20411
 20
63.94448
 30
0.0
 10
25.23439
 20
63.95771
 30
0.0
 10
25.26666
 20
63.96433
 30
0.0
 10
25.30098
 20
63.96433
 30
0.0
 10
25.30098
 20
63.96433
 30
0.0
 10
25.33515
 20
63.96433
 30
0.0
 10
25.36735
 20
63.95771
 30
0.0
 10
25.39755
 20
63.94463
 30
0.0
 10
25.39755
 20
63.94463
 30
0.0
 10
25.42776
 20
63.93148
 30
0.0
 10
25.45414
 20
63.91362
 30
0.0
 10
25.47663
 20
63.89105
 30
0.0
 10
25.47663
 20
63.89105
 30
0.0
 10
25.4992
 20
63.86856
 30
0.0
 10
25.51705
 20
63.84211
 30
0.0
 10
25.53021
 20
63.81183
 30
0.0
 10
25.53021
 20
63.81183
 30
0.0
 10
25.54329
 20
63.78155
 30
0.0
 10
25.54991
 20
63.74936
 30
0.0
 10
25.54991
 20
63.71518
 30
0.0
 10
25.54991
 20
63.71518
 30
0.0
 10
25.54991
 20
63.67931
 30
0.0
 10
25.54271
 20
63.64565
 30
0.0
 10
25.52845
 20
63.6142
 30
0.0
 10
25.52845
 20
63.6142
 30
0.0
 10
25.51419
 20
63.58274
 30
0.0
 10
25.49479
 20
63.5557
 30
0.0
 10
25.47024
 20
63.53298
 30
0.0
 10
25.47024
 20
63.53298
 30
0.0
 10
25.49479
 20
63.5102
 30
0.0
 10
25.51419
 20
63.48308
 30
0.0
 10
25.52859
 20
63.4517
 30
0.0
 10
25.52859
 20
63.4517
 30
0.0
 10
25.54293
 20
63.42039
 30
0.0
 10
25.55013
 20
63.3868
 30
0.0
 10
25.55013
 20
63.35108
 30
0.0
 10
25.55013
 20
63.35108
 30
0.0
 10
25.55013
 20
63.35108
 30
0.0
 10
25.55013
 20
63.3444
 30
0.0
 10
25.55013
 20
63.3444
 30
0.0
 10
25.55013
 20
63.3444
 30
0.0
 10
25.54998
 20
63.31007
 30
0.0
 10
25.54329
 20
63.27788
 30
0.0
 10
25.53021
 20
63.24775
 30
0.0
 10
25.53021
 20
63.24775
 30
0.0
 10
25.51705
 20
63.21754
 30
0.0
 10
25.4992
 20
63.19123
 30
0.0
 10
25.47663
 20
63.16867
 30
0.0
 10
25.47663
 20
63.16867
 30
0.0
 10
25.45414
 20
63.14618
 30
0.0
 10
25.42769
 20
63.12839
 30
0.0
 10
25.39741
 20
63.11531
 30
0.0
 10
25.39741
 20
63.11531
 30
0.0
 10
25.36713
 20
63.10223
 30
0.0
 10
25.33493
 20
63.09569
 30
0.0
 10
25.30076
 20
63.09569
 30
0.0
 10
25.30076
 20
63.09569
 30
0.0
 10
25.26644
 20
63.09569
 30
0.0
 10
25.23417
 20
63.10223
 30
0.0
 10
25.20397
 20
63.11531
 30
0.0
 10
25.20397
 20
63.11531
 30
0.0
 10
25.17376
 20
63.12839
 30
0.0
 10
25.14737
 20
63.14618
 30
0.0
 10
25.12481
 20
63.16882
 30
0.0
 10
25.12481
 20
63.16882
 30
0.0
 10
25.10232
 20
63.19138
 30
0.0
 10
25.08454
 20
63.21784
 30
0.0
 10
25.07145
 20
63.24804
 30
0.0
 10
25.07145
 20
63.24804
 30
0.0
 10
25.05837
 20
63.27825
 30
0.0
 10
25.05183
 20
63.31059
 30
0.0
 10
25.05183
 20
63.34506
 30
0.0
 10
25.05183
 20
63.34506
 30
0.0
 10
25.05183
 20
63.34506
 30
0.0
 10
25.18574
 20
63.34484
 30
0.0
 10
25.18574
 20
63.34484
 30
0.0
 10
25.18574
 20
63.34484
 30
0.0
 10
25.18574
 20
63.31265
 30
0.0
 10
25.19698
 20
63.28538
 30
0.0
 10
25.2194
 20
63.26289
 30
0.0
 10
25.2194
 20
63.26289
 30
0.0
 10
25.24174
 20
63.2404
 30
0.0
 10
25.26886
 20
63.22923
 30
0.0
 10
25.30076
 20
63.22923
 30
0.0
 10
25.30076
 20
63.22923
 30
0.0
 10
25.33251
 20
63.22923
 30
0.0
 10
25.3597
 20
63.2404
 30
0.0
 10
25.38249
 20
63.26282
 30
0.0
 10
25.38249
 20
63.26282
 30
0.0
 10
25.4052
 20
63.28516
 30
0.0
 10
25.41659
 20
63.31228
 30
0.0
 10
25.41659
 20
63.34418
 30
0.0
 10
25.41659
 20
63.34418
 30
0.0
 10
25.41659
 20
63.34418
 30
0.0
 10
25.41637
 20
63.35042
 30
0.0
 10
25.41637
 20
63.35042
 30
0.0
 10
25.41637
 20
63.35042
 30
0.0
 10
25.41637
 20
63.38232
 30
0.0
 10
25.4049
 20
63.40951
 30
0.0
 10
25.38205
 20
63.43215
 30
0.0
 10
25.38205
 20
63.43215
 30
0.0
 10
25.35911
 20
63.45471
 30
0.0
 10
25.33177
 20
63.46603
 30
0.0
 10
25.29988
 20
63.46603
 30
0.0
 10
25.29988
 20
63.46603
 30
0.0
 10
25.29988
 20
63.46603
 30
0.0
 10
25.29988
 20
63.60001
 30
0.0
 10
25.29988
 20
63.60001
 30
0.0
 10
25.29988
 20
63.60001
 30
0.0
 10
25.30061
 20
63.60001
 30
0.0
 10
25.30142
 20
63.60001
 30
0.0
 10
25.30223
 20
63.60001
 30
0.0
 10
25.30223
 20
63.60001
 30
0.0
 10
25.30311
 20
63.60001
 30
0.0
 10
25.30399
 20
63.60001
 30
0.0
 10
25.30487
 20
63.60001
 30
0.0
 10
25.30487
 20
63.60001
 30
0.0
 10
25.33545
 20
63.60112
 30
0.0
 10
25.36169
 20
63.61287
 30
0.0
 10
25.38366
 20
63.63522
 30
0.0
 10
25.38366
 20
63.63522
 30
0.0
 10
25.40564
 20
63.65749
 30
0.0
 10
25.41659
 20
63.68416
 30
0.0
 10
25.41659
 20
63.71518
 30
0.0
 10
25.41659
 20
63.71518
 30
0.0
 10
25.41659
 20
63.74693
 30
0.0
 10
25.40527
 20
63.77405
 30
0.0
 10
25.38271
 20
63.79669
 30
0.0
 10
25.38271
 20
63.79669
 30
0.0
 10
25.36007
 20
63.81925
 30
0.0
 10
25.33288
 20
63.83057
 30
0.0
 10
25.3012
 20
63.83057
 30
0.0
 10
25.3012
 20
63.83057
 30
0.0
 10
25.2693
 20
63.83057
 30
0.0
 10
25.24218
 20
63.8191
 30
0.0
 10
25.21969
 20
63.79624
 30
0.0
 10
25.21969
 20
63.79624
 30
0.0
 10
25.19721
 20
63.77331
 30
0.0
 10
25.18596
 20
63.74597
 30
0.0
 10
25.18596
 20
63.71408
 30
0.0
  0
SPLINE
  5
66
330
1F
100
AcDbEntity
  8
Layer 1
100
AcDbSpline
210
0.0
220
0.0
230
1.0
 70
    11
 71
     3
 72
    36
 73
    32
 74
     0
 42
0.0000000001
 43
0.0000000001
 40
0.0
 40
0.0
 40
0.0
 40
0.0
 40
0.125
 40
0.125
 40
0.125
 40
0.125
 40
0.25
 40
0.25
 40
0.25
 40
0.25
 40
0.375
 40
0.375
 40
0.375
 40
0.375
 40
0.5
 40
0.5
 40
0.5
 40
0.5
 40
0.625
 40
0.625
 40
0.625
 40
0.625
 40
0.75
 40
0.75
 40
0.75
 40
0.75
 40
0.875
 40
0.875
 40
0.875
 40
0.875
 40
1.0
 40
1.0
 40
1.0
 40
1.0
 10
26.39628
 20
63.83057
 30
0.0
 10
26.36438
 20
63.83057
 30
0.0
 10
26.33726
 20
63.81925
 30
0.0
 10
26.31477
 20
63.79669
 30
0.0
 10
26.31477
 20
63.79669
 30
0.0
 10
26.29228
 20
63.77405
 30
0.0
 10
26.28104
 20
63.74693
 30
0.0
 10
26.28104
 20
63.71518
 30
0.0
 10
26.28104
 20
63.71518
 30
0.0
 10
26.28104
 20
63.68328
 30
0.0
 10
26.29228
 20
63.65609
 30
0.0
 10
26.31477
 20
63.6336
 30
0.0
 10
26.31477
 20
63.6336
 30
0.0
 10
26.33726
 20
63.61104
 30
0.0
 10
26.36438
 20
63.59979
 30
0.0
 10
26.39628
 20
63.59979
 30
0.0
 10
26.39628
 20
63.59979
 30
0.0
 10
26.42795
 20
63.59979
 30
0.0
 10
26.45515
 20
63.61104
 30
0.0
 10
26.47779
 20
63.6336
 30
0.0
 10
26.47779
 20
63.6336
 30
0.0
 10
26.50035
 20
63.65609
 30
0.0
 10
26.51167
 20
63.68328
 30
0.0
 10
26.51167
 20
63.71518
 30
0.0
 10
26.51167
 20
63.71518
 30
0.0
 10
26.51167
 20
63.74693
 30
0.0
 10
26.50035
 20
63.77405
 30
0.0
 10
26.47779
 20
63.79669
 30
0.0
 10
26.47779
 20
63.79669
 30
0.0
 10
26.45515
 20
63.81925
 30
0.0
 10
26.42795
 20
63.83057
 30
0.0
 10
26.39628
 20
63.83057
 30
0.0
  0
SPLINE
  5
67
330
1F
100
AcDbEntity
  8
Layer 1
100
AcDbSpline
210
0.0
220
0.0
230
1.0
 70
    11
 71
     3
 72
   120
 73
   116
 74
     0
 42
0.0000000001
 43
0.0000000001
 40
0.0
 40
0.0
 40
0.0
 40
0.0
 40
0.0344827586206897
 40
0.0344827586206897
 40
0.0344827586206897
 40
0.0344827586206897
 40
0.0689655172413793
 40
0.0689655172413793
 40
0.0689655172413793
 40
0.0689655172413793
 40
0.103448275862069
 40
0.103448275862069
 40
0.103448275862069
 40
0.103448275862069
 40
0.1379310344827586
 40
0.1379310344827586
 40
0.1379310344827586
 40
0.1379310344827586
 40
0.1724137931034483
 40
0.1724137931034483
 40
0.1724137931034483
 40
0.1724137931034483
 40
0.206896551724138
 40
0.206896551724138
 40
0.206896551724138
 40
0.206896551724138
 40
0.2413793103448276
 40
0.2413793103448276
 40
0.2413793103448276
 40
0.2413793103448276
 40
0.2758620689655173
 40
0.2758620689655173
 40
0.2758620689655173
 40
0.2758620689655173
 40
0.310344827586207
 40
0.310344827586207
 40
0.310344827586207
 40
0.310344827586207
 40
0.3448275862068966
 40
0.3448275862068966
 40
0.3448275862068966
 40
0.3448275862068966
 40
0.3793103448275863
 40
0.3793103448275863
 40
0.3793103448275863
 40
0.3793103448275863
 40
0.413793103448276
 40
0.413793103448276
 40
0.413793103448276
 40
0.413793103448276
 40
0.4482758620689656
 40
0.4482758620689656
 40
0.4482758620689656
 40
0.4482758620689656
 40
0.4827586206896553
 40
0.4827586206896553
 40
0.4827586206896553
 40
0.4827586206896553
 40
0.517241379310345
 40
0.517241379310345
 40
0.517241379310345
 40
0.517241379310345
 40
0.5517241379310346
 40
0.5517241379310346
 40
0.5517241379310346
 40
0.5517241379310346
 40
0.5862068965517242
 40
0.5862068965517242
 40
0.5862068965517242
 40
0.5862068965517242
 40
0.6206896551724138
 40
0.6206896551724138
 40
0.6206896551724138
 40
0.6206896551724138
 40
0.6551724137931034
 40
0.6551724137931034
 40
0.6551724137931034
 40
0.6551724137931034
 40
0.689655172413793
 40
0.689655172413793
 40
0.689655172413793
 40
0.689655172413793
 40
0.7241379310344827
 40
0.7241379310344827
 40
0.7241379310344827
 40
0.7241379310344827
 40
0.7586206896551723
 40
0.7586206896551723
 40
0.7586206896551723
 40
0.7586206896551723
 40
0.7931034482758619
 40
0.7931034482758619
 40
0.7931034482758619
 40
0.7931034482758619
 40
0.8275862068965515
 40
0.8275862068965515
 40
0.8275862068965515
 40
0.8275862068965515
 40
0.8620689655172411
 40
0.8620689655172411
 40
0.8620689655172411
 40
0.8620689655172411
 40
0.8965517241379307
 40
0.8965517241379307
 40
0.8965517241379307
 40
0.8965517241379307
 40
0.9310344827586203
 40
0.9310344827586203
 40
0.9310344827586203
 40
0.9310344827586203
 40
0.9655172413793099
 40
0.9655172413793099
 40
0.9655172413793099
 40
0.9655172413793099
 40
1.0
 40
1.0
 40
1.0
 40
1.0
 10
26.39606
 20
63.96433
 30
0.0
 10
26.43023
 20
63.96433
 30
0.0
 10
26.46243
 20
63.95771
 30
0.0
 10
26.49263
 20
63.94463
 30
0.0
 10
26.49263
 20
63.94463
 30
0.0
 10
26.52284
 20
63.93148
 30
0.0
 10
26.54922
 20
63.91362
 30
0.0
 10
26.57171
 20
63.89105
 30
0.0
 10
26.57171
 20
63.89105
 30
0.0
 10
26.59427
 20
63.86856
 30
0.0
 10
26.61213
 20
63.84211
 30
0.0
 10
26.62529
 20
63.81183
 30
0.0
 10
26.62529
 20
63.81183
 30
0.0
 10
26.63837
 20
63.78155
 30
0.0
 10
26.64499
 20
63.74936
 30
0.0
 10
26.64499
 20
63.71518
 30
0.0
 10
26.64499
 20
63.71518
 30
0.0
 10
26.64499
 20
63.67917
 30
0.0
 10
26.63778
 20
63.64543
 30
0.0
 10
26.62345
 20
63.61398
 30
0.0
 10
26.62345
 20
63.61398
 30
0.0
 10
26.60905
 20
63.58252
 30
0.0
 10
26.58965
 20
63.55548
 30
0.0
 10
26.5651
 20
63.53276
 30
0.0
 10
26.5651
 20
63.53276
 30
0.0
 10
26.58965
 20
63.50998
 30
0.0
 10
26.60905
 20
63.48279
 30
0.0
 10
26.62345
 20
63.45133
 30
0.0
 10
26.62345
 20
63.45133
 30
0.0
 10
26.63778
 20
63.4198
 30
0.0
 10
26.64513
 20
63.38607
 30
0.0
 10
26.64535
 20
63.3502
 30
0.0
 10
26.64535
 20
63.3502
 30
0.0
 10
26.64535
 20
63.3502
 30
0.0
 10
26.64535
 20
63.3502
 30
0.0
 10
26.64535
 20
63.3502
 30
0.0
 10
26.64535
 20
63.3502
 30
0.0
 10
26.64535
 20
63.3502
 30
0.0
 10
26.64535
 20
63.34954
 30
0.0
 10
26.64535
 20
63.34954
 30
0.0
 10
26.64535
 20
63.34954
 30
0.0
 10
26.64535
 20
63.34954
 30
0.0
 10
26.64535
 20
63.34418
 30
0.0
 10
26.64535
 20
63.34418
 30
0.0
 10
26.64535
 20
63.34418
 30
0.0
 10
26.64535
 20
63.34418
 30
0.0
 10
26.64535
 20
63.34351
 30
0.0
 10
26.64535
 20
63.34351
 30
0.0
 10
26.64535
 20
63.34351
 30
0.0
 10
26.64535
 20
63.30919
 30
0.0
 10
26.63881
 20
63.27708
 30
0.0
 10
26.62566
 20
63.24694
 30
0.0
 10
26.62566
 20
63.24694
 30
0.0
 10
26.61257
 20
63.21688
 30
0.0
 10
26.59472
 20
63.19064
 30
0.0
 10
26.57208
 20
63.1683
 30
0.0
 10
26.57208
 20
63.1683
 30
0.0
 10
26.54944
 20
63.14588
 30
0.0
 10
26.52299
 20
63.12817
 30
0.0
 10
26.49271
 20
63.11516
 30
0.0
 10
26.49271
 20
63.11516
 30
0.0
 10
26.46243
 20
63.10223
 30
0.0
 10
26.43023
 20
63.09569
 30
0.0
 10
26.39606
 20
63.09569
 30
0.0
 10
26.39606
 20
63.09569
 30
0.0
 10
26.36174
 20
63.09569
 30
0.0
 10
26.32947
 20
63.10223
 30
0.0
 10
26.29919
 20
63.11531
 30
0.0
 10
26.29919
 20
63.11531
 30
0.0
 10
26.26884
 20
63.12839
 30
0.0
 10
26.24245
 20
63.14618
 30
0.0
 10
26.21989
 20
63.16867
 30
0.0
 10
26.21989
 20
63.16867
 30
0.0
 10
26.1974
 20
63.19123
 30
0.0
 10
26.17961
 20
63.21762
 30
0.0
 10
26.16653
 20
63.24782
 30
0.0
 10
26.16653
 20
63.24782
 30
0.0
 10
26.15345
 20
63.27803
 30
0.0
 10
26.14691
 20
63.31029
 30
0.0
 10
26.14691
 20
63.34462
 30
0.0
 10
26.14691
 20
63.34462
 30
0.0
 10
26.14691
 20
63.34462
 30
0.0
 10
26.14691
 20
63.34998
 30
0.0
 10
26.14691
 20
63.34998
 30
0.0
 10
26.14691
 20
63.34998
 30
0.0
 10
26.14691
 20
63.386
 30
0.0
 10
26.15411
 20
63.4198
 30
0.0
 10
26.16844
 20
63.45133
 30
0.0
 10
26.16844
 20
63.45133
 30
0.0
 10
26.18285
 20
63.48279
 30
0.0
 10
26.20225
 20
63.50998
 30
0.0
 10
26.2268
 20
63.53276
 30
0.0
 10
26.2268
 20
63.53276
 30
0.0
 10
26.20225
 20
63.55562
 30
0.0
 10
26.18285
 20
63.58274
 30
0.0
 10
26.16844
 20
63.61405
 30
0.0
 10
26.16844
 20
63.61405
 30
0.0
 10
26.15411
 20
63.64543
 30
0.0
 10
26.14691
 20
63.67917
 30
0.0
 10
26.14691
 20
63.71518
 30
0.0
 10
26.14691
 20
63.71518
 30
0.0
 10
26.14691
 20
63.74936
 30
0.0
 10
26.15345
 20
63.78155
 30
0.0
 10
26.16653
 20
63.81183
 30
0.0
 10
26.16653
 20
63.81183
 30
0.0
 10
26.17961
 20
63.84211
 30
0.0
 10
26.1974
 20
63.86856
 30
0.0
 10
26.21989
 20
63.89105
 30
0.0
 10
26.21989
 20
63.89105
 30
0.0
 10
26.24245
 20
63.91362
 30
0.0
 10
26.26884
 20
63.93148
 30
0.0
 10
26.29919
 20
63.94463
 30
0.0
 10
26.29919
 20
63.94463
 30
0.0
 10
26.32947
 20
63.95771
 30
0.0
 10
26.36174
 20
63.96433
 30
0.0
 10
26.39606
 20
63.96433
 30
0.0
  0
SPLINE
  5
68
330
1F
100
AcDbEntity
  8
Layer 1
100
AcDbSpline
210
0.0
220
0.0
230
1.0
 70
    11
 71
     3
 72
    48
 73
    44
 74
     0
 42
0.0000000001
 43
0.0000000001
 40
0.0
 40
0.0
 40
0.0
 40
0.0
 40
0.0909090909090909
 40
0.0909090909090909
 40
0.0909090909090909
 40
0.0909090909090909
 40
0.1818181818181818
 40
0.1818181818181818
 40
0.1818181818181818
 40
0.1818181818181818
 40
0.2727272727272727
 40
0.2727272727272727
 40
0.2727272727272727
 40
0.2727272727272727
 40
0.3636363636363636
 40
0.3636363636363636
 40
0.3636363636363636
 40
0.3636363636363636
 40
0.4545454545454546
 40
0.4545454545454546
 40
0.4545454545454546
 40
0.4545454545454546
 40
0.5454545454545455
 40
0.5454545454545455
 40
0.5454545454545455
 40
0.5454545454545455
 40
0.6363636363636365
 40
0.6363636363636365
 40
0.6363636363636365
 40
0.6363636363636365
 40
0.7272727272727274
 40
0.7272727272727274
 40
0.7272727272727274
 40
0.7272727272727274
 40
0.8181818181818183
 40
0.8181818181818183
 40
0.8181818181818183
 40
0.8181818181818183
 40
0.9090909090909093
 40
0.9090909090909093
 40
0.9090909090909093
 40
0.9090909090909093
 40
1.0
 40
1.0
 40
1.0
 40
1.0
 10
26.28082
 20
63.34976
 30
0.0
 10
26.28082
 20
63.34976
 30
0.0
 10
26.28126
 20
63.3444
 30
0.0
 10
26.28126
 20
63.3444
 30
0.0
 10
26.28126
 20
63.3444
 30
0.0
 10
26.28111
 20
63.31279
 30
0.0
 10
26.29228
 20
63.28575
 30
0.0
 10
26.31477
 20
63.26326
 30
0.0
 10
26.31477
 20
63.26326
 30
0.0
 10
26.33726
 20
63.2407
 30
0.0
 10
26.36438
 20
63.22945
 30
0.0
 10
26.39628
 20
63.22945
 30
0.0
 10
26.39628
 20
63.22945
 30
0.0
 10
26.42795
 20
63.22945
 30
0.0
 10
26.45515
 20
63.2407
 30
0.0
 10
26.47764
 20
63.26326
 30
0.0
 10
26.47764
 20
63.26326
 30
0.0
 10
26.5002
 20
63.28575
 30
0.0
 10
26.5113
 20
63.31279
 30
0.0
 10
26.51101
 20
63.3444
 30
0.0
 10
26.51101
 20
63.3444
 30
0.0
 10
26.51101
 20
63.3444
 30
0.0
 10
26.51167
 20
63.3444
 30
0.0
 10
26.51167
 20
63.3444
 30
0.0
 10
26.51167
 20
63.3444
 30
0.0
 10
26.51167
 20
63.3444
 30
0.0
 10
26.51167
 20
63.34954
 30
0.0
 10
26.51167
 20
63.34954
 30
0.0
 10
26.51167
 20
63.34954
 30
0.0
 10
26.51167
 20
63.38129
 30
0.0
 10
26.50035
 20
63.40863
 30
0.0
 10
26.47779
 20
63.43149
 30
0.0
 10
26.47779
 20
63.43149
 30
0.0
 10
26.45515
 20
63.45442
 30
0.0
 10
26.42795
 20
63.46581
 30
0.0
 10
26.39628
 20
63.46581
 30
0.0
 10
26.39628
 20
63.46581
 30
0.0
 10
26.36438
 20
63.46581
 30
0.0
 10
26.33719
 20
63.45456
 30
0.0
 10
26.31463
 20
63.43193
 30
0.0
 10
26.31463
 20
63.43193
 30
0.0
 10
26.29214
 20
63.40929
 30
0.0
 10
26.28082
 20
63.38195
 30
0.0
 10
26.28082
 20
63.34976
 30
0.0
  0
SPLINE
  5
69
330
1F
100
AcDbEntity
  8
Layer 1
100
AcDbSpline
210
0.0
220
0.0
230
1.0
 70
    11
 71
     3
 72
    36
 73
    32
 74
     0
 42
0.0000000001
 43
0.0000000001
 40
0.0
 40
0.0
 40
0.0
 40
0.0
 40
0.125
 40
0.125
 40
0.125
 40
0.125
 40
0.25
 40
0.25
 40
0.25
 40
0.25
 40
0.375
 40
0.375
 40
0.375
 40
0.375
 40
0.5
 40
0.5
 40
0.5
 40
0.5
 40
0.625
 40
0.625
 40
0.625
 40
0.625
 40
0.75
 40
0.75
 40
0.75
 40
0.75
 40
0.875
 40
0.875
 40
0.875
 40
0.875
 40
1.0
 40
1.0
 40
1.0
 40
1.0
 10
27.05061
 20
63.83057
 30
0.0
 10
27.01871
 20
63.83057
 30
0.0
 10
26.99159
 20
63.81925
 30
0.0
 10
26.9691
 20
63.79669
 30
0.0
 10
26.9691
 20
63.79669
 30
0.0
 10
26.94661
 20
63.77405
 30
0.0
 10
26.93537
 20
63.74693
 30
0.0
 10
26.93537
 20
63.71518
 30
0.0
 10
26.93537
 20
63.71518
 30
0.0
 10
26.93537
 20
63.68328
 30
0.0
 10
26.94661
 20
63.65609
 30
0.0
 10
26.9691
 20
63.6336
 30
0.0
 10
26.9691
 20
63.6336
 30
0.0
 10
26.99159
 20
63.61104
 30
0.0
 10
27.01871
 20
63.59979
 30
0.0
 10
27.05061
 20
63.59979
 30
0.0
 10
27.05061
 20
63.59979
 30
0.0
 10
27.08228
 20
63.59979
 30
0.0
 10
27.10948
 20
63.61104
 30
0.0
 10
27.13211
 20
63.6336
 30
0.0
 10
27.13211
 20
63.6336
 30
0.0
 10
27.15467
 20
63.65609
 30
0.0
 10
27.16599
 20
63.68328
 30
0.0
 10
27.16599
 20
63.71518
 30
0.0
 10
27.16599
 20
63.71518
 30
0.0
 10
27.16599
 20
63.74693
 30
0.0
 10
27.15467
 20
63.77405
 30
0.0
 10
27.13211
 20
63.79669
 30
0.0
 10
27.13211
 20
63.79669
 30
0.0
 10
27.10948
 20
63.81925
 30
0.0
 10
27.08228
 20
63.83057
 30
0.0
 10
27.05061
 20
63.83057
 30
0.0
  0
SPLINE
  5
6A
330
1F
100
AcDbEntity
  8
Layer 1
100
AcDbSpline
210
0.0
220
0.0
230
1.0
 70
    11
 71
     3
 72
   120
 73
   116
 74
     0
 42
0.0000000001
 43
0.0000000001
 40
0.0
 40
0.0
 40
0.0
 40
0.0
 40
0.0344827586206897
 40
0.0344827586206897
 40
0.0344827586206897
 40
0.0344827586206897
 40
0.0689655172413793
 40
0.0689655172413793
 40
0.0689655172413793
 40
0.0689655172413793
 40
0.103448275862069
 40
0.103448275862069
 40
0.103448275862069
 40
0.103448275862069
 40
0.1379310344827586
 40
0.1379310344827586
 40
0.1379310344827586
 40
0.1379310344827586
 40
0.1724137931034483
 40
0.1724137931034483
 40
0.1724137931034483
 40
0.1724137931034483
 40
0.206896551724138
 40
0.206896551724138
 40
0.206896551724138
 40
0.206896551724138
 40
0.2413793103448276
 40
0.2413793103448276
 40
0.2413793103448276
 40
0.2413793103448276
 40
0.2758620689655173
 40
0.2758620689655173
 40
0.2758620689655173
 40
0.2758620689655173
 40
0.310344827586207
 40
0.310344827586207
 40
0.310344827586207
 40
0.310344827586207
 40
0.3448275862068966
 40
0.3448275862068966
 40
0.3448275862068966
 40
0.3448275862068966
 40
0.3793103448275863
 40
0.3793103448275863
 40
0.3793103448275863
 40
0.3793103448275863
 40
0.413793103448276
 40
0.413793103448276
 40
0.413793103448276
 40
0.413793103448276
 40
0.4482758620689656
 40
0.4482758620689656
 40
0.4482758620689656
 40
0.4482758620689656
 40
0.4827586206896553
 40
0.4827586206896553
 40
0.4827586206896553
 40
0.4827586206896553
 40
0.517241379310345
 40
0.517241379310345
 40
0.517241379310345
 40
0.517241379310345
 40
0.5517241379310346
 40
0.5517241379310346
 40
0.5517241379310346
 40
0.5517241379310346
 40
0.5862068965517242
 40
0.5862068965517242
 40
0.5862068965517242
 40
0.5862068965517242
 40
0.6206896551724138
 40
0.6206896551724138
 40
0.6206896551724138
 40
0.6206896551724138
 40
0.6551724137931034
 40
0.6551724137931034
 40
0.6551724137931034
 40
0.6551724137931034
 40
0.689655172413793
 40
0.689655172413793
 40
0.689655172413793
 40
0.689655172413793
 40
0.7241379310344827
 40
0.7241379310344827
 40
0.7241379310344827
 40
0.7241379310344827
 40
0.7586206896551723
 40
0.7586206896551723
 40
0.7586206896551723
 40
0.7586206896551723
 40
0.7931034482758619
 40
0.7931034482758619
 40
0.7931034482758619
 40
0.7931034482758619
 40
0.8275862068965515
 40
0.8275862068965515
 40
0.8275862068965515
 40
0.8275862068965515
 40
0.8620689655172411
 40
0.8620689655172411
 40
0.8620689655172411
 40
0.8620689655172411
 40
0.8965517241379307
 40
0.8965517241379307
 40
0.8965517241379307
 40
0.8965517241379307
 40
0.9310344827586203
 40
0.9310344827586203
 40
0.9310344827586203
 40
0.9310344827586203
 40
0.9655172413793099
 40
0.9655172413793099
 40
0.9655172413793099
 40
0.9655172413793099
 40
1.0
 40
1.0
 40
1.0
 40
1.0
 10
27.05039
 20
63.96433
 30
0.0
 10
27.08456
 20
63.96433
 30
0.0
 10
27.11675
 20
63.95771
 30
0.0
 10
27.14696
 20
63.94463
 30
0.0
 10
27.14696
 20
63.94463
 30
0.0
 10
27.17717
 20
63.93148
 30
0.0
 10
27.20355
 20
63.91362
 30
0.0
 10
27.22604
 20
63.89105
 30
0.0
 10
27.22604
 20
63.89105
 30
0.0
 10
27.2486
 20
63.86856
 30
0.0
 10
27.26646
 20
63.84211
 30
0.0
 10
27.27962
 20
63.81183
 30
0.0
 10
27.27962
 20
63.81183
 30
0.0
 10
27.2927
 20
63.78155
 30
0.0
 10
27.29931
 20
63.74936
 30
0.0
 10
27.29931
 20
63.71518
 30
0.0
 10
27.29931
 20
63.71518
 30
0.0
 10
27.29931
 20
63.67917
 30
0.0
 10
27.29211
 20
63.64543
 30
0.0
 10
27.27778
 20
63.61398
 30
0.0
 10
27.27778
 20
63.61398
 30
0.0
 10
27.26337
 20
63.58252
 30
0.0
 10
27.24397
 20
63.55548
 30
0.0
 10
27.21943
 20
63.53276
 30
0.0
 10
27.21943
 20
63.53276
 30
0.0
 10
27.24397
 20
63.50998
 30
0.0
 10
27.26337
 20
63.48279
 30
0.0
 10
27.27778
 20
63.45133
 30
0.0
 10
27.27778
 20
63.45133
 30
0.0
 10
27.29211
 20
63.4198
 30
0.0
 10
27.29946
 20
63.38607
 30
0.0
 10
27.29968
 20
63.3502
 30
0.0
 10
27.29968
 20
63.3502
 30
0.0
 10
27.29968
 20
63.3502
 30
0.0
 10
27.29968
 20
63.3502
 30
0.0
 10
27.29968
 20
63.3502
 30
0.0
 10
27.29968
 20
63.3502
 30
0.0
 10
27.29968
 20
63.3502
 30
0.0
 10
27.29968
 20
63.34954
 30
0.0
 10
27.29968
 20
63.34954
 30
0.0
 10
27.29968
 20
63.34954
 30
0.0
 10
27.29968
 20
63.34954
 30
0.0
 10
27.29968
 20
63.34418
 30
0.0
 10
27.29968
 20
63.34418
 30
0.0
 10
27.29968
 20
63.34418
 30
0.0
 10
27.29968
 20
63.34418
 30
0.0
 10
27.29968
 20
63.34351
 30
0.0
 10
27.29968
 20
63.34351
 30
0.0
 10
27.29968
 20
63.34351
 30
0.0
 10
27.29968
 20
63.30919
 30
0.0
 10
27.29314
 20
63.27708
 30
0.0
 10
27.27999
 20
63.24694
 30
0.0
 10
27.27999
 20
63.24694
 30
0.0
 10
27.2669
 20
63.21688
 30
0.0
 10
27.24904
 20
63.19064
 30
0.0
 10
27.22641
 20
63.1683
 30
0.0
 10
27.22641
 20
63.1683
 30
0.0
 10
27.20377
 20
63.14588
 30
0.0
 10
27.17731
 20
63.12817
 30
0.0
 10
27.14703
 20
63.11516
 30
0.0
 10
27.14703
 20
63.11516
 30
0.0
 10
27.11675
 20
63.10223
 30
0.0
 10
27.08456
 20
63.09569
 30
0.0
 10
27.05039
 20
63.09569
 30
0.0
 10
27.05039
 20
63.09569
 30
0.0
 10
27.01606
 20
63.09569
 30
0.0
 10
26.9838
 20
63.10223
 30
0.0
 10
26.95352
 20
63.11531
 30
0.0
 10
26.95352
 20
63.11531
 30
0.0
 10
26.92317
 20
63.12839
 30
0.0
 10
26.89678
 20
63.14618
 30
0.0
 10
26.87422
 20
63.16867
 30
0.0
 10
26.87422
 20
63.16867
 30
0.0
 10
26.85173
 20
63.19123
 30
0.0
 10
26.83394
 20
63.21762
 30
0.0
 10
26.82086
 20
63.24782
 30
0.0
 10
26.82086
 20
63.24782
 30
0.0
 10
26.80778
 20
63.27803
 30
0.0
 10
26.80124
 20
63.31029
 30
0.0
 10
26.80124
 20
63.34462
 30
0.0
 10
26.80124
 20
63.34462
 30
0.0
 10
26.80124
 20
63.34462
 30
0.0
 10
26.80124
 20
63.34998
 30
0.0
 10
26.80124
 20
63.34998
 30
0.0
 10
26.80124
 20
63.34998
 30
0.0
 10
26.80124
 20
63.386
 30
0.0
 10
26.80844
 20
63.4198
 30
0.0
 10
26.82277
 20
63.45133
 30
0.0
 10
26.82277
 20
63.45133
 30
0.0
 10
26.83718
 20
63.48279
 30
0.0
 10
26.85658
 20
63.50998
 30
0.0
 10
26.88113
 20
63.53276
 30
0.0
 10
26.88113
 20
63.53276
 30
0.0
 10
26.85658
 20
63.55562
 30
0.0
 10
26.83718
 20
63.58274
 30
0.0
 10
26.82277
 20
63.61405
 30
0.0
 10
26.82277
 20
63.61405
 30
0.0
 10
26.80844
 20
63.64543
 30
0.0
 10
26.80124
 20
63.67917
 30
0.0
 10
26.80124
 20
63.71518
 30
0.0
 10
26.80124
 20
63.71518
 30
0.0
 10
26.80124
 20
63.74936
 30
0.0
 10
26.80778
 20
63.78155
 30
0.0
 10
26.82086
 20
63.81183
 30
0.0
 10
26.82086
 20
63.81183
 30
0.0
 10
26.83394
 20
63.84211
 30
0.0
 10
26.85173
 20
63.86856
 30
0.0
 10
26.87422
 20
63.89105
 30
0.0
 10
26.87422
 20
63.89105
 30
0.0
 10
26.89678
 20
63.91362
 30
0.0
 10
26.92317
 20
63.93148
 30
0.0
 10
26.95352
 20
63.94463
 30
0.0
 10
26.95352
 20
63.94463
 30
0.0
 10
26.9838
 20
63.95771
 30
0.0
 10
27.01606
 20
63.96433
 30
0.0
 10
27.05039
 20
63.96433
 30
0.0
  0
SPLINE
  5
6B
330
1F
100
AcDbEntity
  8
Layer 1
100
AcDbSpline
210
0.0
220
0.0
230
1.0
 70
    11
 71
     3
 72
    48
 73
    44
 74
     0
 42
0.0000000001
 43
0.0000000001
 40
0.0
 40
0.0
 40
0.0
 40
0.0
 40
0.0909090909090909
 40
0.0909090909090909
 40
0.0909090909090909
 40
0.0909090909090909
 40
0.1818181818181818
 40
0.1818181818181818
 40
0.1818181818181818
 40
0.1818181818181818
 40
0.2727272727272727
 40
0.2727272727272727
 40
0.2727272727272727
 40
0.2727272727272727
 40
0.3636363636363636
 40
0.3636363636363636
 40
0.3636363636363636
 40
0.3636363636363636
 40
0.4545454545454546
 40
0.4545454545454546
 40
0.4545454545454546
 40
0.4545454545454546
 40
0.5454545454545455
 40
0.5454545454545455
 40
0.5454545454545455
 40
0.5454545454545455
 40
0.6363636363636365
 40
0.6363636363636365
 40
0.6363636363636365
 40
0.6363636363636365
 40
0.7272727272727274
 40
0.7272727272727274
 40
0.7272727272727274
 40
0.7272727272727274
 40
0.8181818181818183
 40
0.8181818181818183
 40
0.8181818181818183
 40
0.8181818181818183
 40
0.9090909090909093
 40
0.9090909090909093
 40
0.9090909090909093
 40
0.9090909090909093
 40
1.0
 40
1.0
 40
1.0
 40
1.0
 10
26.93515
 20
63.34976
 30
0.0
 10
26.93515
 20
63.34976
 30
0.0
 10
26.93559
 20
63.3444
 30
0.0
 10
26.93559
 20
63.3444
 30
0.0
 10
26.93559
 20
63.3444
 30
0.0
 10
26.93544
 20
63.31279
 30
0.0
 10
26.94661
 20
63.28575
 30
0.0
 10
26.9691
 20
63.26326
 30
0.0
 10
26.9691
 20
63.26326
 30
0.0
 10
26.99159
 20
63.2407
 30
0.0
 10
27.01871
 20
63.22945
 30
0.0
 10
27.05061
 20
63.22945
 30
0.0
 10
27.05061
 20
63.22945
 30
0.0
 10
27.08228
 20
63.22945
 30
0.0
 10
27.10948
 20
63.2407
 30
0.0
 10
27.13197
 20
63.26326
 30
0.0
 10
27.13197
 20
63.26326
 30
0.0
 10
27.15453
 20
63.28575
 30
0.0
 10
27.16563
 20
63.31279
 30
0.0
 10
27.16533
 20
63.3444
 30
0.0
 10
27.16533
 20
63.3444
 30
0.0
 10
27.16533
 20
63.3444
 30
0.0
 10
27.16599
 20
63.3444
 30
0.0
 10
27.16599
 20
63.3444
 30
0.0
 10
27.16599
 20
63.3444
 30
0.0
 10
27.16599
 20
63.3444
 30
0.0
 10
27.16599
 20
63.34954
 30
0.0
 10
27.16599
 20
63.34954
 30
0.0
 10
27.16599
 20
63.34954
 30
0.0
 10
27.16599
 20
63.38129
 30
0.0
 10
27.15467
 20
63.40863
 30
0.0
 10
27.13211
 20
63.43149
 30
0.0
 10
27.13211
 20
63.43149
 30
0.0
 10
27.10948
 20
63.45442
 30
0.0
 10
27.08228
 20
63.46581
 30
0.0
 10
27.05061
 20
63.46581
 30
0.0
 10
27.05061
 20
63.46581
 30
0.0
 10
27.01871
 20
63.46581
 30
0.0
 10
26.99152
 20
63.45456
 30
0.0
 10
26.96895
 20
63.43193
 30
0.0
 10
26.96895
 20
63.43193
 30
0.0
 10
26.94646
 20
63.40929
 30
0.0
 10
26.93515
 20
63.38195
 30
0.0
 10
26.93515
 20
63.34976
 30
0.0
  0
SPLINE
  5
6C
330
1F
100
AcDbEntity
  8
Layer 1
100
AcDbSpline
210
0.0
220
0.0
230
1.0
 70
    11
 71
     3
 72
    20
 73
    16
 74
     0
 42
0.0000000001
 43
0.0000000001
 40
0.0
 40
0.0
 40
0.0
 40
0.0
 40
0.25
 40
0.25
 40
0.25
 40
0.25
 40
0.5
 40
0.5
 40
0.5
 40
0.5
 40
0.75
 40
0.75
 40
0.75
 40
0.75
 40
1.0
 40
1.0
 40
1.0
 40
1.0
 10
25.69148
 20
63.60001
 30
0.0
 10
25.69148
 20
63.60001
 30
0.0
 10
26.00242
 20
63.60001
 30
0.0
 10
26.00242
 20
63.60001
 30
0.0
 10
26.00242
 20
63.60001
 30
0.0
 10
26.00242
 20
63.60001
 30
0.0
 10
26.00242
 20
63.46603
 30
0.0
 10
26.00242
 20
63.46603
 30
0.0
 10
26.00242
 20
63.46603
 30
0.0
 10
26.00242
 20
63.46603
 30
0.0
 10
25.69148
 20
63.46603
 30
0.0
 10
25.69148
 20
63.46603
 30
0.0
 10
25.69148
 20
63.46603
 30
0.0
 10
25.69148
 20
63.46603
 30
0.0
 10
25.69148
 20
63.60001
 30
0.0
 10
25.69148
 20
63.60001
 30
0.0
  0
SPLINE
  5
6D
330
1F
100
AcDbEntity
  8
Layer 1
100
AcDbSpline
210
0.0
220
0.0
230
1.0
 70
    11
 71
     3
 72
    36
 73
    32
 74
     0
 42
0.0000000001
 43
0.0000000001
 40
0.0
 40
0.0
 40
0.0
 40
0.0
 40
0.125
 40
0.125
 40
0.125
 40
0.125
 40
0.25
 40
0.25
 40
0.25
 40
0.25
 40
0.375
 40
0.375
 40
0.375
 40
0.375
 40
0.5
 40
0.5
 40
0.5
 40
0.5
 40
0.625
 40
0.625
 40
0.625
 40
0.625
 40
0.75
 40
0.75
 40
0.75
 40
0.75
 40
0.875
 40
0.875
 40
0.875
 40
0.875
 40
1.0
 40
1.0
 40
1.0
 40
1.0
 10
23.89226
 20
64.02767
 30
0.0
 10
23.9546
 20
64.02767
 30
0.0
 10
24.01105
 20
64.00239
 30
0.0
 10
24.05191
 20
63.96153
 30
0.0
 10
24.05191
 20
63.96153
 30
0.0
 10
24.09277
 20
63.92067
 30
0.0
 10
24.11805
 20
63.86422
 30
0.0
 10
24.11805
 20
63.80189
 30
0.0
 10
24.11805
 20
63.80189
 30
0.0
 10
24.11805
 20
63.73955
 30
0.0
 10
24.09277
 20
63.68311
 30
0.0
 10
24.05191
 20
63.64225
 30
0.0
 10
24.05191
 20
63.64225
 30
0.0
 10
24.01105
 20
63.60139
 30
0.0
 10
23.9546
 20
63.57611
 30
0.0
 10
23.89226
 20
63.57611
 30
0.0
 10
23.89226
 20
63.57611
 30
0.0
 10
23.82993
 20
63.57611
 30
0.0
 10
23.77348
 20
63.60139
 30
0.0
 10
23.73262
 20
63.64225
 30
0.0
 10
23.73262
 20
63.64225
 30
0.0
 10
23.69176
 20
63.68311
 30
0.0
 10
23.66648
 20
63.73955
 30
0.0
 10
23.66648
 20
63.80189
 30
0.0
 10
23.66648
 20
63.80189
 30
0.0
 10
23.66648
 20
63.86422
 30
0.0
 10
23.69176
 20
63.92067
 30
0.0
 10
23.73262
 20
63.96153
 30
0.0
 10
23.73262
 20
63.96153
 30
0.0
 10
23.77348
 20
64.00239
 30
0.0
 10
23.82993
 20
64.02767
 30
0.0
 10
23.89226
 20
64.02767
 30
0.0
  0
SPLINE
  5
6E
330
1F
100
AcDbEntity
  8
Layer 1
100
AcDbSpline
210
0.0
220
0.0
230
1.0
 70
    11
 71
     3
 72
    36
 73
    32
 74
     0
 42
0.0000000001
 43
0.0000000001
 40
0.0
 40
0.0
 40
0.0
 40
0.0
 40
0.125
 40
0.125
 40
0.125
 40
0.125
 40
0.25
 40
0.25
 40
0.25
 40
0.25
 40
0.375
 40
0.375
 40
0.375
 40
0.375
 40
0.5
 40
0.5
 40
0.5
 40
0.5
 40
0.625
 40
0.625
 40
0.625
 40
0.625
 40
0.75
 40
0.75
 40
0.75
 40
0.75
 40
0.875
 40
0.875
 40
0.875
 40
0.875
 40
1.0
 40
1.0
 40
1.0
 40
1.0
 10
24.02539
 20
63.93502
 30
0.0
 10
23.99132
 20
63.96909
 30
0.0
 10
23.94425
 20
63.99017
 30
0.0
 10
23.89226
 20
63.99017
 30
0.0
 10
23.89226
 20
63.99017
 30
0.0
 10
23.84028
 20
63.99017
 30
0.0
 10
23.79321
 20
63.96909
 30
0.0
 10
23.75913
 20
63.93502
 30
0.0
 10
23.75913
 20
63.93502
 30
0.0
 10
23.72506
 20
63.90095
 30
0.0
 10
23.70398
 20
63.85387
 30
0.0
 10
23.70398
 20
63.80189
 30
0.0
 10
23.70398
 20
63.80189
 30
0.0
 10
23.70398
 20
63.7499
 30
0.0
 10
23.72506
 20
63.70283
 30
0.0
 10
23.75913
 20
63.66876
 30
0.0
 10
23.75913
 20
63.66876
 30
0.0
 10
23.79321
 20
63.63469
 30
0.0
 10
23.84028
 20
63.61361
 30
0.0
 10
23.89226
 20
63.61361
 30
0.0
 10
23.89226
 20
63.61361
 30
0.0
 10
23.94425
 20
63.61361
 30
0.0
 10
23.99132
 20
63.63469
 30
0.0
 10
24.02539
 20
63.66876
 30
0.0
 10
24.02539
 20
63.66876
 30
0.0
 10
24.05947
 20
63.70283
 30
0.0
 10
24.08055
 20
63.7499
 30
0.0
 10
24.08055
 20
63.80189
 30
0.0
 10
24.08055
 20
63.80189
 30
0.0
 10
24.08055
 20
63.85387
 30
0.0
 10
24.05947
 20
63.90095
 30
0.0
 10
24.02539
 20
63.93502
 30
0.0
  0
SPLINE
  5
6F
330
1F
100
AcDbEntity
  8
Layer 1
100
AcDbSpline
210
0.0
220
0.0
230
1.0
 70
    11
 71
     3
 72
    36
 73
    32
 74
     0
 42
0.0000000001
 43
0.0000000001
 40
0.0
 40
0.0
 40
0.0
 40
0.0
 40
0.125
 40
0.125
 40
0.125
 40
0.125
 40
0.25
 40
0.25
 40
0.25
 40
0.25
 40
0.375
 40
0.375
 40
0.375
 40
0.375
 40
0.5
 40
0.5
 40
0.5
 40
0.5
 40
0.625
 40
0.625
 40
0.625
 40
0.625
 40
0.75
 40
0.75
 40
0.75
 40
0.75
 40
0.875
 40
0.875
 40
0.875
 40
0.875
 40
1.0
 40
1.0
 40
1.0
 40
1.0
 10
23.89226
 20
63.46363
 30
0.0
 10
23.9546
 20
63.46363
 30
0.0
 10
24.01105
 20
63.43835
 30
0.0
 10
24.05191
 20
63.39749
 30
0.0
 10
24.05191
 20
63.39749
 30
0.0
 10
24.09277
 20
63.35663
 30
0.0
 10
24.11805
 20
63.30019
 30
0.0
 10
24.11805
 20
63.23785
 30
0.0
 10
24.11805
 20
63.23785
 30
0.0
 10
24.11805
 20
63.17552
 30
0.0
 10
24.09277
 20
63.11907
 30
0.0
 10
24.05191
 20
63.07821
 30
0.0
 10
24.05191
 20
63.07821
 30
0.0
 10
24.01105
 20
63.03735
 30
0.0
 10
23.9546
 20
63.01207
 30
0.0
 10
23.89226
 20
63.01207
 30
0.0
 10
23.89226
 20
63.01207
 30
0.0
 10
23.82993
 20
63.01207
 30
0.0
 10
23.77348
 20
63.03735
 30
0.0
 10
23.73262
 20
63.07821
 30
0.0
 10
23.73262
 20
63.07821
 30
0.0
 10
23.69176
 20
63.11907
 30
0.0
 10
23.66648
 20
63.17552
 30
0.0
 10
23.66648
 20
63.23785
 30
0.0
 10
23.66648
 20
63.23785
 30
0.0
 10
23.66648
 20
63.30019
 30
0.0
 10
23.69176
 20
63.35663
 30
0.0
 10
23.73262
 20
63.39749
 30
0.0
 10
23.73262
 20
63.39749
 30
0.0
 10
23.77348
 20
63.43835
 30
0.0
 10
23.82993
 20
63.46363
 30
0.0
 10
23.89226
 20
63.46363
 30
0.0
  0
SPLINE
  5
70
330
1F
100
AcDbEntity
  8
Layer 1
100
AcDbSpline
210
0.0
220
0.0
230
1.0
 70
    11
 71
     3
 72
    36
 73
    32
 74
     0
 42
0.0000000001
 43
0.0000000001
 40
0.0
 40
0.0
 40
0.0
 40
0.0
 40
0.125
 40
0.125
 40
0.125
 40
0.125
 40
0.25
 40
0.25
 40
0.25
 40
0.25
 40
0.375
 40
0.375
 40
0.375
 40
0.375
 40
0.5
 40
0.5
 40
0.5
 40
0.5
 40
0.625
 40
0.625
 40
0.625
 40
0.625
 40
0.75
 40
0.75
 40
0.75
 40
0.75
 40
0.875
 40
0.875
 40
0.875
 40
0.875
 40
1.0
 40
1.0
 40
1.0
 40
1.0
 10
24.02539
 20
63.37098
 30
0.0
 10
23.99132
 20
63.40505
 30
0.0
 10
23.94425
 20
63.42613
 30
0.0
 10
23.89226
 20
63.42613
 30
0.0
 10
23.89226
 20
63.42613
 30
0.0
 10
23.84028
 20
63.42613
 30
0.0
 10
23.79321
 20
63.40505
 30
0.0
 10
23.75913
 20
63.37098
 30
0.0
 10
23.75913
 20
63.37098
 30
0.0
 10
23.72506
 20
63.33691
 30
0.0
 10
23.70398
 20
63.28984
 30
0.0
 10
23.70398
 20
63.23785
 30
0.0
 10
23.70398
 20
63.23785
 30
0.0
 10
23.70398
 20
63.18587
 30
0.0
 10
23.72506
 20
63.13879
 30
0.0
 10
23.75913
 20
63.10472
 30
0.0
 10
23.75913
 20
63.10472
 30
0.0
 10
23.79321
 20
63.07065
 30
0.0
 10
23.84028
 20
63.04957
 30
0.0
 10
23.89226
 20
63.04957
 30
0.0
 10
23.89226
 20
63.04957
 30
0.0
 10
23.94425
 20
63.04957
 30
0.0
 10
23.99132
 20
63.07065
 30
0.0
 10
24.02539
 20
63.10472
 30
0.0
 10
24.02539
 20
63.10472
 30
0.0
 10
24.05947
 20
63.13879
 30
0.0
 10
24.08055
 20
63.18587
 30
0.0
 10
24.08055
 20
63.23785
 30
0.0
 10
24.08055
 20
63.23785
 30
0.0
 10
24.08055
 20
63.28984
 30
0.0
 10
24.05947
 20
63.33691
 30
0.0
 10
24.02539
 20
63.37098
 30
0.0
  0
SPLINE
  5
71
330
1F
100
AcDbEntity
  8
Layer 1
370
     9
100
AcDbSpline
210
0.0
220
0.0
230
1.0
 70
    11
 71
     3
 72
    20
 73
    16
 74
     0
 42
0.0000000001
 43
0.0000000001
 40
0.0
 40
0.0
 40
0.0
 40
0.0
 40
0.25
 40
0.25
 40
0.25
 40
0.25
 40
0.5
 40
0.5
 40
0.5
 40
0.5
 40
0.75
 40
0.75
 40
0.75
 40
0.75
 40
1.0
 40
1.0
 40
1.0
 40
1.0
 10
21.17613
 20
64.20737
 30
0.0
 10
21.17613
 20
64.20737
 30
0.0
 10
27.67613
 20
64.20737
 30
0.0
 10
27.67613
 20
64.20737
 30
0.0
 10
27.67613
 20
64.20737
 30
0.0
 10
27.67613
 20
64.20737
 30
0.0
 10
27.67613
 20
62.83237
 30
0.0
 10
27.67613
 20
62.83237
 30
0.0
 10
27.67613
 20
62.83237
 30
0.0
 10
27.67613
 20
62.83237
 30
0.0
 10
21.17613
 20
62.83237
 30
0.0
 10
21.17613
 20
62.83237
 30
0.0
 10
21.17613
 20
62.83237
 30
0.0
 10
21.17613
 20
62.83237
 30
0.0
 10
21.17613
 20
64.20737
 30
0.0
 10
21.17613
 20
64.20737
 30
0.0
  0
SPLINE
  5
72
330
1F
100
AcDbEntity
  8
Layer 1
100
AcDbSpline
210
0.0
220
0.0
230
1.0
 70
    11
 71
     3
 72
    52
 73
    48
 74
     0
 42
0.0000000001
 43
0.0000000001
 40
0.0
 40
0.0
 40
0.0
 40
0.0
 40
0.0833333333333333
 40
0.0833333333333333
 40
0.0833333333333333
 40
0.0833333333333333
 40
0.1666666666666667
 40
0.1666666666666667
 40
0.1666666666666667
 40
0.1666666666666667
 40
0.25
 40
0.25
 40
0.25
 40
0.25
 40
0.3333333333333333
 40
0.3333333333333333
 40
0.3333333333333333
 40
0.3333333333333333
 40
0.4166666666666666
 40
0.4166666666666666
 40
0.4166666666666666
 40
0.4166666666666666
 40
0.4999999999999999
 40
0.4999999999999999
 40
0.4999999999999999
 40
0.4999999999999999
 40
0.5833333333333333
 40
0.5833333333333333
 40
0.5833333333333333
 40
0.5833333333333333
 40
0.6666666666666666
 40
0.6666666666666666
 40
0.6666666666666666
 40
0.6666666666666666
 40
0.75
 40
0.75
 40
0.75
 40
0.75
 40
0.8333333333333334
 40
0.8333333333333334
 40
0.8333333333333334
 40
0.8333333333333334
 40
0.9166666666666667
 40
0.9166666666666667
 40
0.9166666666666667
 40
0.9166666666666667
 40
1.0
 40
1.0
 40
1.0
 40
1.0
 10
21.30454
 20
64.17233
 30
0.0
 10
21.30454
 20
64.17233
 30
0.0
 10
27.54772
 20
64.17233
 30
0.0
 10
27.54772
 20
64.17233
 30
0.0
 10
27.54772
 20
64.17233
 30
0.0
 10
27.57343
 20
64.17233
 30
0.0
 10
27.59678
 20
64.16183
 30
0.0
 10
27.61369
 20
64.14492
 30
0.0
 10
27.61369
 20
64.14492
 30
0.0
 10
27.63059
 20
64.12802
 30
0.0
 10
27.64109
 20
64.10467
 30
0.0
 10
27.64109
 20
64.07896
 30
0.0
 10
27.64109
 20
64.07896
 30
0.0
 10
27.64109
 20
64.07896
 30
0.0
 10
27.64109
 20
62.96078
 30
0.0
 10
27.64109
 20
62.96078
 30
0.0
 10
27.64109
 20
62.96078
 30
0.0
 10
27.64109
 20
62.93507
 30
0.0
 10
27.63059
 20
62.91172
 30
0.0
 10
27.61369
 20
62.89481
 30
0.0
 10
27.61369
 20
62.89481
 30
0.0
 10
27.59678
 20
62.87791
 30
0.0
 10
27.57343
 20
62.86741
 30
0.0
 10
27.54772
 20
62.86741
 30
0.0
 10
27.54772
 20
62.86741
 30
0.0
 10
27.54772
 20
62.86741
 30
0.0
 10
21.30454
 20
62.86741
 30
0.0
 10
21.30454
 20
62.86741
 30
0.0
 10
21.30454
 20
62.86741
 30
0.0
 10
21.27883
 20
62.86741
 30
0.0
 10
21.25548
 20
62.87791
 30
0.0
 10
21.23857
 20
62.89481
 30
0.0
 10
21.23857
 20
62.89481
 30
0.0
 10
21.22167
 20
62.91172
 30
0.0
 10
21.21117
 20
62.93507
 30
0.0
 10
21.21117
 20
62.96078
 30
0.0
 10
21.21117
 20
62.96078
 30
0.0
 10
21.21117
 20
62.96078
 30
0.0
 10
21.21117
 20
64.07896
 30
0.0
 10
21.21117
 20
64.07896
 30
0.0
 10
21.21117
 20
64.07896
 30
0.0
 10
21.21117
 20
64.10467
 30
0.0
 10
21.22167
 20
64.12802
 30
0.0
 10
21.23857
 20
64.14492
 30
0.0
 10
21.23857
 20
64.14492
 30
0.0
 10
21.25548
 20
64.16183
 30
0.0
 10
21.27883
 20
64.17233
 30
0.0
 10
21.30454
 20
64.17233
 30
0.0
  0
SPLINE
  5
73
330
1F
100
AcDbEntity
  8
Layer 1
100
AcDbSpline
210
0.0
220
0.0
230
1.0
 70
    11
 71
     3
 72
    52
 73
    48
 74
     0
 42
0.0000000001
 43
0.0000000001
 40
0.0
 40
0.0
 40
0.0
 40
0.0
 40
0.0833333333333333
 40
0.0833333333333333
 40
0.0833333333333333
 40
0.0833333333333333
 40
0.1666666666666667
 40
0.1666666666666667
 40
0.1666666666666667
 40
0.1666666666666667
 40
0.25
 40
0.25
 40
0.25
 40
0.25
 40
0.3333333333333333
 40
0.3333333333333333
 40
0.3333333333333333
 40
0.3333333333333333
 40
0.4166666666666666
 40
0.4166666666666666
 40
0.4166666666666666
 40
0.4166666666666666
 40
0.4999999999999999
 40
0.4999999999999999
 40
0.4999999999999999
 40
0.4999999999999999
 40
0.5833333333333333
 40
0.5833333333333333
 40
0.5833333333333333
 40
0.5833333333333333
 40
0.6666666666666666
 40
0.6666666666666666
 40
0.6666666666666666
 40
0.6666666666666666
 40
0.75
 40
0.75
 40
0.75
 40
0.75
 40
0.8333333333333334
 40
0.8333333333333334
 40
0.8333333333333334
 40
0.8333333333333334
 40
0.9166666666666667
 40
0.9166666666666667
 40
0.9166666666666667
 40
0.9166666666666667
 40
1.0
 40
1.0
 40
1.0
 40
1.0
 10
27.54772
 20
64.10983
 30
0.0
 10
27.54772
 20
64.10983
 30
0.0
 10
21.30454
 20
64.10983
 30
0.0
 10
21.30454
 20
64.10983
 30
0.0
 10
21.30454
 20
64.10983
 30
0.0
 10
21.29609
 20
64.10983
 30
0.0
 10
21.28837
 20
64.10634
 30
0.0
 10
21.28277
 20
64.10074
 30
0.0
 10
21.28277
 20
64.10074
 30
0.0
 10
21.27716
 20
64.09512
 30
0.0
 10
21.27367
 20
64.08741
 30
0.0
 10
21.27367
 20
64.07896
 30
0.0
 10
21.27367
 20
64.07896
 30
0.0
 10
21.27367
 20
64.07896
 30
0.0
 10
21.27367
 20
62.96078
 30
0.0
 10
21.27367
 20
62.96078
 30
0.0
 10
21.27367
 20
62.96078
 30
0.0
 10
21.27367
 20
62.95232
 30
0.0
 10
21.27716
 20
62.94461
 30
0.0
 10
21.28277
 20
62.939
 30
0.0
 10
21.28277
 20
62.939
 30
0.0
 10
21.28837
 20
62.9334
 30
0.0
 10
21.29609
 20
62.92991
 30
0.0
 10
21.30454
 20
62.92991
 30
0.0
 10
21.30454
 20
62.92991
 30
0.0
 10
21.30454
 20
62.92991
 30
0.0
 10
27.54772
 20
62.92991
 30
0.0
 10
27.54772
 20
62.92991
 30
0.0
 10
27.54772
 20
62.92991
 30
0.0
 10
27.55617
 20
62.92991
 30
0.0
 10
27.56389
 20
62.9334
 30
0.0
 10
27.56949
 20
62.939
 30
0.0
 10
27.56949
 20
62.939
 30
0.0
 10
27.5751
 20
62.94461
 30
0.0
 10
27.57859
 20
62.95232
 30
0.0
 10
27.57859
 20
62.96078
 30
0.0
 10
27.57859
 20
62.96078
 30
0.0
 10
27.57859
 20
62.96078
 30
0.0
 10
27.57859
 20
64.07896
 30
0.0
 10
27.57859
 20
64.07896
 30
0.0
 10
27.57859
 20
64.07896
 30
0.0
 10
27.57859
 20
64.08741
 30
0.0
 10
27.5751
 20
64.09512
 30
0.0
 10
27.56949
 20
64.10074
 30
0.0
 10
27.56949
 20
64.10074
 30
0.0
 10
27.56389
 20
64.10634
 30
0.0
 10
27.55617
 20
64.10983
 30
0.0
 10
27.54772
 20
64.10983
 30
0.0
  0
ENDSEC
  0
SECTION
  2
OBJECTS
  0
DICTIONARY
  5
C
330
0
100
AcDbDictionary
281
     1
  3
ACAD_GROUP
350
D
  3
ACAD_LAYOUT
350
1A
  3
ACAD_MLEADERSTYLE
350
75
  3
ACAD_MLINESTYLE
350
17
  3
ACAD_PLOTSETTINGS
350
19
  3
ACAD_PLOTSTYLENAME
350
E
  3
ACAD_SCALELIST
350
3B
  3
ACAD_TABLESTYLE
350
74
  3
ACAD_VISUALSTYLE
350
2A
  0
DICTIONARY
  5
D
102
{ACAD_REACTORS
330
C
102
}
330
C
100
AcDbDictionary
281
     1
  0
DICTIONARY
  5
1A
102
{ACAD_REACTORS
330
C
102
}
330
C
100
AcDbDictionary
281
     1
  3
Layout1
350
1E
  3
Layout2
350
26
  3
Model
350
22
  0
DICTIONARY
  5
75
102
{ACAD_REACTORS
330
C
102
}
330
C
100
AcDbDictionary
281
     1
  0
DICTIONARY
  5
17
102
{ACAD_REACTORS
330
C
102
}
330
C
100
AcDbDictionary
281
     1
  3
Standard
350
18
  0
DICTIONARY
  5
19
102
{ACAD_REACTORS
330
C
102
}
330
C
100
AcDbDictionary
281
     1
  0
ACDBDICTIONARYWDFLT
  5
E
102
{ACAD_REACTORS
330
C
102
}
330
C
100
AcDbDictionary
281
     1
  3
Normal
350
F
100
AcDbDictionaryWithDefault
340
F
  0
DICTIONARY
  5
3B
102
{ACAD_REACTORS
330
C
102
}
330
C
100
AcDbDictionary
281
     1
  3
A0
350
3C
  3
A1
350
3D
  3
A2
350
3E
  3
A3
350
3F
  3
A4
350
40
  3
A5
350
41
  3
A6
350
42
  3
A7
350
43
  3
A8
350
44
  3
A9
350
45
  3
B0
350
46
  3
B1
350
47
  3
B2
350
48
  3
B3
350
49
  3
B4
350
4A
  3
B5
350
4B
  3
B6
350
4C
  3
B7
350
4D
  3
B8
350
4E
  3
B9
350
4F
  3
C0
350
50
  3
C1
350
51
  3
C2
350
52
  3
C3
350
53
  3
C4
350
54
  3
C5
350
55
  3
C6
350
56
  3
C7
350
57
  3
C8
350
58
  3
C9
350
59
  3
D0
350
5A
  3
D1
350
5B
  3
D2
350
5C
  0
DICTIONARY
  5
74
102
{ACAD_REACTORS
330
C
102
}
330
C
100
AcDbDictionary
281
     1
  0
DICTIONARY
  5
2A
102
{ACAD_REACTORS
330
C
102
}
330
C
100
AcDbDictionary
281
     1
  3
2dWireframe
350
2F
  3
3D Hidden
350
31
  3
3dWireframe
350
30
  3
Basic
350
32
  3
Brighten
350
36
  3
ColorChange
350
3A
  3
Conceptual
350
34
  3
Dim
350
35
  3
Facepattern
350
39
  3
Flat
350
2B
  3
FlatWithEdges
350
2C
  3
Gouraud
350
2D
  3
GouraudWithEdges
350
2E
  3
Linepattern
350
38
  3
Realistic
350
33
  3
Thicken
350
37
  0
LAYOUT
  5
1E
102
{ACAD_REACTORS
330
1A
102
}
330
1A
100
AcDbPlotSettings
  1

  2
none_device
  4

  6

 40
0.0
 41
0.0
 42
0.0
 43
0.0
 44
0.0
 45
0.0
 46
0.0
 47
0.0
 48
0.0
 49
0.0
140
0.0
141
0.0
142
1.0
143
1.0
 70
   688
 72
     0
 73
     0
 74
     5
  7

 75
    16
 76
     0
 77
     2
 78
   300
147
1.0
148
0.0
149
0.0
100
AcDbLayout
  1
Layout1
 70
     1
 71
     1
 10
0.0
 20
0.0
 11
12.0
 21
9.0
 12
0.0
 22
0.0
 32
0.0
 14
1.000000000000000E+20
 24
1.000000000000000E+20
 34
1.000000000000000E+20
 15
-1.000000000000000E+20
 25
-1.000000000000000E+20
 35
-1.000000000000000E+20
146
0.0
 13
0.0
 23
0.0
 33
0.0
 16
1.0
 26
0.0
 36
0.0
 17
0.0
 27
1.0
 37
0.0
 76
     0
330
1B
  0
LAYOUT
  5
26
102
{ACAD_REACTORS
330
1A
102
}
330
1A
100
AcDbPlotSettings
  1

  2
none_device
  4

  6

 40
0.0
 41
0.0
 42
0.0
 43
0.0
 44
0.0
 45
0.0
 46
0.0
 47
0.0
 48
0.0
 49
0.0
140
0.0
141
0.0
142
1.0
143
1.0
 70
   688
 72
     0
 73
     0
 74
     5
  7

 75
    16
 76
     0
 77
     2
 78
   300
147
1.0
148
0.0
149
0.0
100
AcDbLayout
  1
Layout2
 70
     1
 71
     2
 10
0.0
 20
0.0
 11
0.0
 21
0.0
 12
0.0
 22
0.0
 32
0.0
 14
0.0
 24
0.0
 34
0.0
 15
0.0
 25
0.0
 35
0.0
146
0.0
 13
0.0
 23
0.0
 33
0.0
 16
1.0
 26
0.0
 36
0.0
 17
0.0
 27
1.0
 37
0.0
 76
     0
330
23
  0
LAYOUT
  5
22
102
{ACAD_REACTORS
330
1A
102
}
330
1A
100
AcDbPlotSettings
  1

  2
none_device
  4

  6

 40
0.0
 41
0.0
 42
0.0
 43
0.0
 44
0.0
 45
0.0
 46
0.0
 47
0.0
 48
0.0
 49
0.0
140
0.0
141
0.0
142
1.0
143
1.0
 70
  1712
 72
     0
 73
     0
 74
     0
  7

 75
     0
 76
     0
 77
     2
 78
   300
147
1.0
148
0.0
149
0.0
100
AcDbLayout
  1
Model
 70
     1
 71
     0
 10
0.0
 20
0.0
 11
12.0
 21
9.0
 12
0.0
 22
0.0
 32
0.0
 14
21.17113
 24
62.82737
 34
0.0
 15
27.68113
 25
64.21237
 35
0.0
146
0.0
 13
0.0
 23
0.0
 33
0.0
 16
1.0
 26
0.0
 36
0.0
 17
0.0
 27
1.0
 37
0.0
 76
     0
330
1F
331
29
  0
MLINESTYLE
  5
18
102
{ACAD_REACTORS
330
17
102
}
330
17
100
AcDbMlineStyle
  2
Standard
 70
     0
  3

 62
   256
 51
90.0
 52
90.0
 71
     2
 49
0.5
 62
   256
  6
BYLAYER
 49
-0.5
 62
   256
  6
BYLAYER
  0
ACDBPLACEHOLDER
  5
F
102
{ACAD_REACTORS
330
E
102
}
330
E
  0
SCALE
  5
3C
102
{ACAD_REACTORS
330
3B
102
}
330
3B
100
AcDbScale
 70
     0
300
1:1
140
1.0
141
1.0
290
     1
  0
SCALE
  5
3D
102
{ACAD_REACTORS
330
3B
102
}
330
3B
100
AcDbScale
 70
     0
300
1:2
140
1.0
141
2.0
290
     0
  0
SCALE
  5
3E
102
{ACAD_REACTORS
330
3B
102
}
330
3B
100
AcDbScale
 70
     0
300
1:4
140
1.0
141
4.0
290
     0
  0
SCALE
  5
3F
102
{ACAD_REACTORS
330
3B
102
}
330
3B
100
AcDbScale
 70
     0
300
1:5
140
1.0
141
5.0
290
     0
  0
SCALE
  5
40
102
{ACAD_REACTORS
330
3B
102
}
330
3B
100
AcDbScale
 70
     0
300
1:8
140
1.0
141
8.0
290
     0
  0
SCALE
  5
41
102
{ACAD_REACTORS
330
3B
102
}
330
3B
100
AcDbScale
 70
     0
300
1:10
140
1.0
141
10.0
290
     0
  0
SCALE
  5
42
102
{ACAD_REACTORS
330
3B
102
}
330
3B
100
AcDbScale
 70
     0
300
1:16
140
1.0
141
16.0
290
     0
  0
SCALE
  5
43
102
{ACAD_REACTORS
330
3B
102
}
330
3B
100
AcDbScale
 70
     0
300
1:20
140
1.0
141
20.0
290
     0
  0
SCALE
  5
44
102
{ACAD_REACTORS
330
3B
102
}
330
3B
100
AcDbScale
 70
     0
300
1:30
140
1.0
141
30.0
290
     0
  0
SCALE
  5
45
102
{ACAD_REACTORS
330
3B
102
}
330
3B
100
AcDbScale
 70
     0
300
1:40
140
1.0
141
40.0
290
     0
  0
SCALE
  5
46
102
{ACAD_REACTORS
330
3B
102
}
330
3B
100
AcDbScale
 70
     0
300
1:50
140
1.0
141
50.0
290
     0
  0
SCALE
  5
47
102
{ACAD_REACTORS
330
3B
102
}
330
3B
100
AcDbScale
 70
     0
300
1:100
140
1.0
141
100.0
290
     0
  0
SCALE
  5
48
102
{ACAD_REACTORS
330
3B
102
}
330
3B
100
AcDbScale
 70
     0
300
2:1
140
2.0
141
1.0
290
     0
  0
SCALE
  5
49
102
{ACAD_REACTORS
330
3B
102
}
330
3B
100
AcDbScale
 70
     0
300
4:1
140
4.0
141
1.0
290
     0
  0
SCALE
  5
4A
102
{ACAD_REACTORS
330
3B
102
}
330
3B
100
AcDbScale
 70
     0
300
8:1
140
8.0
141
1.0
290
     0
  0
SCALE
  5
4B
102
{ACAD_REACTORS
330
3B
102
}
330
3B
100
AcDbScale
 70
     0
300
10:1
140
10.0
141
1.0
290
     0
  0
SCALE
  5
4C
102
{ACAD_REACTORS
330
3B
102
}
330
3B
100
AcDbScale
 70
     0
300
100:1
140
100.0
141
1.0
290
     0
  0
SCALE
  5
4D
102
{ACAD_REACTORS
330
3B
102
}
330
3B
100
AcDbScale
 70
     0
300
1/128" = 1'-0"
140
0.0078125
141
12.0
290
     0
  0
SCALE
  5
4E
102
{ACAD_REACTORS
330
3B
102
}
330
3B
100
AcDbScale
 70
     0
300
1/64" = 1'-0"
140
0.015625
141
12.0
290
     0
  0
SCALE
  5
4F
102
{ACAD_REACTORS
330
3B
102
}
330
3B
100
AcDbScale
 70
     0
300
1/32" = 1'-0"
140
0.03125
141
12.0
290
     0
  0
SCALE
  5
50
102
{ACAD_REACTORS
330
3B
102
}
330
3B
100
AcDbScale
 70
     0
300
1/16" = 1'-0"
140
0.0625
141
12.0
290
     0
  0
SCALE
  5
51
102
{ACAD_REACTORS
330
3B
102
}
330
3B
100
AcDbScale
 70
     0
300
3/32" = 1'-0"
140
0.09375
141
12.0
290
     0
  0
SCALE
  5
52
102
{ACAD_REACTORS
330
3B
102
}
330
3B
100
AcDbScale
 70
     0
300
1/8" = 1'-0"
140
0.125
141
12.0
290
     0
  0
SCALE
  5
53
102
{ACAD_REACTORS
330
3B
102
}
330
3B
100
AcDbScale
 70
     0
300
3/16" = 1'-0"
140
0.1875
141
12.0
290
     0
  0
SCALE
  5
54
102
{ACAD_REACTORS
330
3B
102
}
330
3B
100
AcDbScale
 70
     0
300
1/4" = 1'-0"
140
0.25
141
12.0
290
     0
  0
SCALE
  5
55
102
{ACAD_REACTORS
330
3B
102
}
330
3B
100
AcDbScale
 70
     0
300
3/8" = 1'-0"
140
0.375
141
12.0
290
     0
  0
SCALE
  5
56
102
{ACAD_REACTORS
330
3B
102
}
330
3B
100
AcDbScale
 70
     0
300
1/2" = 1'-0"
140
0.5
141
12.0
290
     0
  0
SCALE
  5
57
102
{ACAD_REACTORS
330
3B
102
}
330
3B
100
AcDbScale
 70
     0
300
3/4" = 1'-0"
140
0.75
141
12.0
290
     0
  0
SCALE
  5
58
102
{ACAD_REACTORS
330
3B
102
}
330
3B
100
AcDbScale
 70
     0
300
1" = 1'-0"
140
1.0
141
12.0
290
     0
  0
SCALE
  5
59
102
{ACAD_REACTORS
330
3B
102
}
330
3B
100
AcDbScale
 70
     0
300
1-1/2" = 1'-0"
140
1.5
141
12.0
290
     0
  0
SCALE
  5
5A
102
{ACAD_REACTORS
330
3B
102
}
330
3B
100
AcDbScale
 70
     0
300
3" = 1'-0"
140
3.0
141
12.0
290
     0
  0
SCALE
  5
5B
102
{ACAD_REACTORS
330
3B
102
}
330
3B
100
AcDbScale
 70
     0
300
6" = 1'-0"
140
6.0
141
12.0
290
     0
  0
SCALE
  5
5C
102
{ACAD_REACTORS
330
3B
102
}
330
3B
100
AcDbScale
 70
     0
300
1'-0" = 1'-0"
140
12.0
141
12.0
290
     0
  0
VISUALSTYLE
  5
2F
102
{ACAD_REACTORS
330
2A
102
}
330
2A
100
AcDbVisualStyle
  2
2dWireframe
 70
     4
 71
     0
 72
     2
 73
     0
 90
        0
 40
-0.6
 41
-30.0
 62
     5
 63
     7
421
 16777215
 74
     1
 91
        4
 64
     7
 65
   257
 75
     1
175
     1
 42
1.0
 92
        0
 66
   257
 43
1.0
 76
     1
 77
     6
 78
     2
 67
     7
 79
     5
170
     0
171
     0
290
     0
174
     0
 93
        1
 44
0.0
173
     0
291
     0
 45
0.0
  0
VISUALSTYLE
  5
31
102
{ACAD_REACTORS
330
2A
102
}
330
2A
100
AcDbVisualStyle
  2
3D Hidden
 70
     6
 71
     1
 72
     2
 73
     2
 90
        0
 40
-0.6
 41
-30.0
 62
     5
 63
     7
421
 16777215
 74
     2
 91
        2
 64
     7
 65
   257
 75
     2
175
     1
 42
40.0
 92
        0
 66
   257
 43
1.0
 76
     1
 77
     6
 78
     2
 67
     7
 79
     3
170
     0
171
     0
290
     0
174
     0
 93
        1
 44
0.0
173
     0
291
     0
 45
0.0
  0
VISUALSTYLE
  5
30
102
{ACAD_REACTORS
330
2A
102
}
330
2A
100
AcDbVisualStyle
  2
3dWireframe
 70
     5
 71
     0
 72
     2
 73
     0
 90
        0
 40
-0.6
 41
-30.0
 62
     5
 63
     7
421
 16777215
 74
     1
 91
        4
 64
     7
 65
   257
 75
     1
175
     1
 42
1.0
 92
        0
 66
   257
 43
1.0
 76
     1
 77
     6
 78
     2
 67
     7
 79
     5
170
     0
171
     0
290
     0
174
     0
 93
        1
 44
0.0
173
     0
291
     0
 45
0.0
  0
VISUALSTYLE
  5
32
102
{ACAD_REACTORS
330
2A
102
}
330
2A
100
AcDbVisualStyle
  2
Basic
 70
     7
 71
     1
 72
     0
 73
     1
 90
        0
 40
-0.6
 41
-30.0
 62
     5
 63
     7
421
 16777215
 74
     0
 91
        4
 64
     7
 65
   257
 75
     1
175
     1
 42
1.0
 92
        8
 66
     7
 43
1.0
 76
     1
 77
     6
 78
     2
 67
     7
 79
     5
170
     0
171
     0
290
     0
174
     0
 93
        1
 44
0.0
173
     0
291
     1
 45
0.0
  0
VISUALSTYLE
  5
36
102
{ACAD_REACTORS
330
2A
102
}
330
2A
100
AcDbVisualStyle
  2
Brighten
 70
    12
 71
     2
 72
     2
 73
     0
 90
        0
 40
-0.6
 41
-30.0
 62
     5
 63
     7
421
 16777215
 74
     1
 91
        4
 64
     7
 65
   257
 75
     1
175
     1
 42
1.0
 92
        8
 66
     7
 43
1.0
 76
     1
 77
     6
 78
     2
 67
     7
 79
     5
170
     0
171
     0
290
     0
174
     0
 93
        1
 44
50.0
173
     0
291
     1
 45
0.0
  0
VISUALSTYLE
  5
3A
102
{ACAD_REACTORS
330
2A
102
}
330
2A
100
AcDbVisualStyle
  2
ColorChange
 70
    16
 71
     2
 72
     2
 73
     3
 90
        0
 40
-0.6
 41
-30.0
 62
     5
 63
     8
421
  8421504
 74
     1
 91
        4
 64
     7
 65
   257
 75
     1
175
     1
 42
1.0
 92
        8
 66
     8
424
  8421504
 43
1.0
 76
     1
 77
     6
 78
     2
 67
     7
 79
     5
170
     0
171
     0
290
     0
174
     0
 93
        1
 44
0.0
173
     0
291
     1
 45
0.0
  0
VISUALSTYLE
  5
34
102
{ACAD_REACTORS
330
2A
102
}
330
2A
100
AcDbVisualStyle
  2
Conceptual
 70
     9
 71
     3
 72
     2
 73
     0
 90
        0
 40
-0.6
 41
-30.0
 62
     5
 63
     7
421
 16777215
 74
     2
 91
        2
 64
     7
 65
   257
 75
     1
175
     1
 42
40.0
 92
        8
 66
     7
 43
1.0
 76
     1
 77
     6
 78
     2
 67
     7
 79
     3
170
     0
171
     0
290
     0
174
     0
 93
        1
 44
0.0
173
     0
291
     0
 45
0.0
  0
VISUALSTYLE
  5
35
102
{ACAD_REACTORS
330
2A
102
}
330
2A
100
AcDbVisualStyle
  2
Dim
 70
    11
 71
     2
 72
     2
 73
     0
 90
        0
 40
-0.6
 41
-30.0
 62
     5
 63
     7
421
 16777215
 74
     1
 91
        4
 64
     7
 65
   257
 75
     1
175
     1
 42
1.0
 92
        8
 66
     7
 43
1.0
 76
     1
 77
     6
 78
     2
 67
     7
 79
     5
170
     0
171
     0
290
     0
174
     0
 93
        1
 44
-50.0
173
     0
291
     1
 45
0.0
  0
VISUALSTYLE
  5
39
102
{ACAD_REACTORS
330
2A
102
}
330
2A
100
AcDbVisualStyle
  2
Facepattern
 70
    15
 71
     2
 72
     2
 73
     0
 90
        0
 40
-0.6
 41
-30.0
 62
     5
 63
     7
421
 16777215
 74
     1
 91
        4
 64
     7
 65
   257
 75
     1
175
     1
 42
1.0
 92
        8
 66
     7
 43
1.0
 76
     1
 77
     6
 78
     2
 67
     7
 79
     5
170
     0
171
     0
290
     0
174
     0
 93
        1
 44
0.0
173
     0
291
     1
 45
0.0
  0
VISUALSTYLE
  5
2B
102
{ACAD_REACTORS
330
2A
102
}
330
2A
100
AcDbVisualStyle
  2
Flat
 70
     0
 71
     2
 72
     1
 73
     1
 90
        2
 40
-0.6
 41
30.0
 62
     5
 63
     7
421
 16777215
 74
     0
 91
        4
 64
     7
 65
   257
 75
     1
175
     1
 42
1.0
 92
        8
 66
     7
 43
1.0
 76
     1
 77
     6
 78
     2
 67
     7
 79
     5
170
     0
171
     0
290
     0
174
     0
 93
       13
 44
0.0
173
     0
291
     1
 45
0.0
  0
VISUALSTYLE
  5
2C
102
{ACAD_REACTORS
330
2A
102
}
330
2A
100
AcDbVisualStyle
  2
FlatWithEdges
 70
     1
 71
     2
 72
     1
 73
     1
 90
        2
 40
-0.6
 41
30.0
 62
     5
 63
     7
421
 16777215
 74
     1
 91
        4
 64
     7
 65
   257
 75
     1
175
     1
 42
1.0
 92
        0
 66
   257
 43
1.0
 76
     1
 77
     6
 78
     2
 67
     7
 79
     5
170
     0
171
     0
290
     0
174
     0
 93
       13
 44
0.0
173
     0
291
     1
 45
0.0
  0
VISUALSTYLE
  5
2D
102
{ACAD_REACTORS
330
2A
102
}
330
2A
100
AcDbVisualStyle
  2
Gouraud
 70
     2
 71
     2
 72
     2
 73
     1
 90
        2
 40
-0.6
 41
30.0
 62
     5
 63
     7
421
 16777215
 74
     0
 91
        4
 64
     7
 65
   257
 75
     1
175
     1
 42
1.0
 92
        0
 66
     7
 43
1.0
 76
     1
 77
     6
 78
     2
 67
     7
 79
     5
170
     0
171
     0
290
     0
174
     0
 93
       13
 44
0.0
173
     0
291
     1
 45
0.0
  0
VISUALSTYLE
  5
2E
102
{ACAD_REACTORS
330
2A
102
}
330
2A
100
AcDbVisualStyle
  2
GouraudWithEdges
 70
     3
 71
     2
 72
     2
 73
     1
 90
        2
 40
-0.6
 41
30.0
 62
     5
 63
     7
421
 16777215
 74
     1
 91
        4
 64
     7
 65
   257
 75
     1
175
     1
 42
1.0
 92
        0
 66
   257
 43
1.0
 76
     1
 77
     6
 78
     2
 67
     7
 79
     5
170
     0
171
     0
290
     0
174
     0
 93
       13
 44
0.0
173
     0
291
     1
 45
0.0
  0
VISUALSTYLE
  5
38
102
{ACAD_REACTORS
330
2A
102
}
330
2A
100
AcDbVisualStyle
  2
Linepattern
 70
    14
 71
     2
 72
     2
 73
     0
 90
        0
 40
-0.6
 41
-30.0
 62
     5
 63
     7
421
 16777215
 74
     1
 91
        4
 64
     7
 65
   257
 75
     7
175
     7
 42
1.0
 92
        8
 66
     7
 43
1.0
 76
     1
 77
     6
 78
     2
 67
     7
 79
     5
170
     0
171
     0
290
     0
174
     0
 93
        1
 44
0.0
173
     0
291
     1
 45
0.0
  0
VISUALSTYLE
  5
33
102
{ACAD_REACTORS
330
2A
102
}
330
2A
100
AcDbVisualStyle
  2
Realistic
 70
     8
 71
     2
 72
     2
 73
     0
 90
        0
 40
-0.6
 41
-30.0
 62
     5
 63
     7
421
 16777215
 74
     1
 91
        0
 64
     7
 65
   257
 75
     1
175
     1
 42
1.0
 92
        8
 66
     8
424
  7895160
 43
1.0
 76
     1
 77
     6
 78
     2
 67
     7
 79
     5
170
     0
171
     0
290
     0
174
     0
 93
       13
 44
0.0
173
     0
291
     0
 45
0.0
  0
VISUALSTYLE
  5
37
102
{ACAD_REACTORS
330
2A
102
}
330
2A
100
AcDbVisualStyle
  2
Thicken
 70
    13
 71
     2
 72
     2
 73
     0
 90
        0
 40
-0.6
 41
-30.0
 62
     5
 63
     7
421
 16777215
 74
     1
 91
        4
 64
     7
 65
   257
 75
     1
175
     1
 42
1.0
 92
       12
 66
     7
 43
1.0
 76
     1
 77
     6
 78
     2
 67
     7
 79
     5
170
     0
171
     0
290
     0
174
     0
 93
        1
 44
0.0
173
     0
291
     1
 45
0.0
  0
ENDSEC
  0
EOF
